<?xml version="1.0" encoding="utf-8"?>
<!-- Generator: Adobe Illustrator 23.0.1, SVG Export Plug-In . SVG Version: 6.00 Build 0)  -->
<svg version="1.1" id="Calque_1" xmlns="http://www.w3.org/2000/svg" xmlns:xlink="http://www.w3.org/1999/xlink" x="0px" y="0px"
	 viewBox="0 0 468 107" style="enable-background:new 0 0 468 107;" xml:space="preserve">
<style type="text/css">
	.st0{fill:#34437B;}
	.st1{enable-background:new    ;}
	.st2{opacity:0.6;fill:url(#SVGID_1_);enable-background:new    ;}
	.st3{fill:url(#SVGID_2_);}
	.st4{fill:url(#SVGID_3_);}
	.st5{fill:url(#SVGID_4_);}
</style>
<title>Fichier 1</title>
<g>
	<g id="Calque_1-2">
		<path class="st0" d="M367.2,45.5c0-10,7.3-17.9,17.1-18.2c9.9-0.2,18.1,7.7,18.4,17.6c0.3,10.4-7.3,18.8-17.7,18.8
			C374.8,63.7,367.2,55.7,367.2,45.5 M356.2,45.5c0,15.9,12.9,28.7,28.8,28.7c15.9,0,28.7-12.9,28.7-28.8
			c0-15.1-11.7-27.6-26.8-28.6c-15.8-1.1-29.6,10.9-30.7,26.7C356.2,44.2,356.2,44.8,356.2,45.5 M227.8,71.7l-23.3-30.5l19.4-22
			c0.6-0.7,0.6-1.8-0.6-1.8h-9.7c-0.9-0.1-1.8,0.3-2.3,1.1l-20.9,23.7V19.1c-0.1-0.8-0.7-1.5-1.6-1.6h-8c-0.8,0-1.4,0.6-1.5,1.4
			c0,0.1,0,0.1,0,0.2v52.9c0,1,0.5,1.5,1.4,1.5h8.1c1,0,1.4-0.5,1.4-1.5V57l6.8-7.3l17,22.5c0.6,0.8,1.1,1.4,2,1.4h11
			C228.2,73.5,228.5,72.7,227.8,71.7 M268.7,49.8L253,57.9l9.4-25.9L268.7,49.8z M288.6,71.8L267.4,19c-0.2-0.9-1-1.4-1.9-1.5h-6.3
			c-0.9,0-1.6,0.6-1.9,1.5L236,71.8c-0.4,1.1,0,1.6,1,1.6h11c1.2-0.8,24-13,24-13l5.5,11.7c0.2,0.8,1,1.4,1.9,1.4h8.2
			C288.6,73.5,289.1,72.9,288.6,71.8 M333.1,35.8c0,4.9-4,8.8-8.9,8.8c-0.1,0-0.2,0-0.3,0h-11.7V26.9h11.7c4.9-0.1,9,3.8,9.1,8.7
			C333.1,35.6,333.1,35.7,333.1,35.8 M345.1,71.9l-10.3-20.4c5.6-3.3,9.5-9.3,9.5-15.6c0-9.5-7.4-18.4-17.7-18.4h-23.9
			c-0.7-0.1-1.4,0.5-1.5,1.2c0,0.1,0,0.2,0,0.3v53c0,0.8,0.7,1.5,1.5,1.5h8c0.8,0,1.5-0.7,1.5-1.5c0,0,0,0,0,0V54.1h11.5l9,18
			c0.5,1.1,1,1.3,1.8,1.3h9.7c0.6,0,1.1-0.4,1.1-1C345.3,72.3,345.2,72,345.1,71.9 M464.8,27.5c0.8-0.7,0.9-1.9,0.2-2.7
			c-0.1-0.1-0.1-0.2-0.2-0.2c-4.4-4.5-10.9-8.1-17.5-8.1c-12.1,0-20.4,6.4-20.4,15.6c0,8.6,6.5,13.4,18.7,17
			c4,1.1,10.5,2.7,10.5,7.5c0,3.8-3.5,7.3-9.5,7.3c-5.7,0-9.9-3.5-13.1-6.5c-0.9-0.8-1.7-1.2-2.6-0.4l-5.1,4.9
			c-1.1,1.1-0.4,2,0.4,2.9c5.3,5.8,12.8,9.1,20.6,9.3c11,0,21-6.8,21-17.2s-8.5-14.5-18.6-17.5c-6.4-1.8-11-3-11-7.2
			c0-5.2,4.8-6.2,8.7-6.2c4.4,0,8.4,3.2,10.8,5.2c1,0.8,1.9,1.4,2.9,0.5L464.8,27.5z"/>
		<g class="st1">
			<path class="st0" d="M181,85.3c0-0.3,0.1-0.4,0.4-0.4h9.9c0.3,0,0.4,0.1,0.4,0.4v2.5c0,0.3-0.1,0.4-0.4,0.4h-6.5v2.4h4.9
				c0.2,0,0.3,0,0.4,0.1c0.1,0.1,0.1,0.2,0.1,0.3v2c0,0.3-0.2,0.4-0.5,0.4h-4.9v2.5h6.7c0.3,0,0.4,0.1,0.4,0.4v2.5
				c0,0.3-0.1,0.4-0.4,0.4h-10.1c-0.3,0-0.4-0.1-0.4-0.4V85.3z"/>
			<path class="st0" d="M202.4,90.6v8.6c0,0.3-0.2,0.4-0.5,0.4h-2.8c-0.3,0-0.4-0.1-0.4-0.4V85.3c0-0.1,0-0.2,0.1-0.3
				c0.1-0.1,0.2-0.1,0.3-0.1h3.2c0.1,0,0.3,0,0.4,0.1s0.2,0.2,0.3,0.3l5,8v-8c0-0.1,0-0.2,0.1-0.3c0.1-0.1,0.2-0.1,0.3-0.1h2.8
				c0.1,0,0.2,0,0.3,0.1c0.1,0.1,0.2,0.2,0.2,0.3v13.9c0,0.3-0.2,0.4-0.5,0.4h-2.9c-0.3,0-0.5-0.1-0.7-0.4L202.4,90.6z"/>
			<path class="st0" d="M218.1,85.3c0-0.3,0.1-0.4,0.4-0.4h10.8c0.3,0,0.4,0.1,0.4,0.4v2.5c0,0.3-0.1,0.4-0.4,0.4h-3.5v10.9
				c0,0.3-0.1,0.4-0.4,0.4h-2.9c-0.3,0-0.4-0.1-0.4-0.4V88.2h-3.5c-0.3,0-0.4-0.1-0.4-0.4V85.3z"/>
			<path class="st0" d="M236.5,85.3c0-0.1,0-0.2,0.1-0.3c0.1-0.1,0.2-0.1,0.3-0.1h6.6c0.7,0,1.3,0.1,1.9,0.4s1.1,0.7,1.5,1.1
				c0.4,0.5,0.7,1,1,1.6c0.2,0.6,0.3,1.2,0.3,1.8c0,0.4-0.1,0.8-0.2,1.2c-0.1,0.4-0.3,0.8-0.5,1.1c-0.2,0.4-0.5,0.7-0.8,1
				c-0.3,0.3-0.6,0.6-1,0.8l2.8,5.3c0.1,0.1,0.1,0.2,0,0.3c0,0.1-0.1,0.1-0.3,0.1h-3.6c-0.1,0-0.2,0-0.3-0.1
				c-0.1-0.1-0.1-0.2-0.2-0.3l-2.3-4.5h-1.6v4.5c0,0.3-0.1,0.4-0.4,0.4h-3c-0.3,0-0.4-0.1-0.4-0.4V85.3z M240.3,87.9v3.6h2.2
				c0.3,0,0.5-0.1,0.7-0.2s0.4-0.2,0.6-0.4c0.2-0.2,0.3-0.4,0.4-0.6c0.1-0.2,0.1-0.4,0.1-0.7c0-0.2,0-0.4-0.1-0.6s-0.2-0.4-0.4-0.6
				c-0.2-0.2-0.3-0.3-0.6-0.4c-0.2-0.1-0.5-0.2-0.7-0.2H240.3z"/>
			<path class="st0" d="M254.8,85.3c0-0.3,0.1-0.4,0.4-0.4h9.9c0.3,0,0.4,0.1,0.4,0.4v2.5c0,0.3-0.1,0.4-0.4,0.4h-6.5v2.4h4.9
				c0.2,0,0.3,0,0.4,0.1c0.1,0.1,0.1,0.2,0.1,0.3v2c0,0.3-0.2,0.4-0.5,0.4h-4.9v2.5h6.7c0.3,0,0.4,0.1,0.4,0.4v2.5
				c0,0.3-0.1,0.4-0.4,0.4h-10.1c-0.3,0-0.4-0.1-0.4-0.4V85.3z"/>
			<path class="st0" d="M272.3,85.3c0-0.1,0-0.3,0.1-0.3c0.1-0.1,0.2-0.1,0.3-0.1h6.4c0.5,0,0.9,0.1,1.3,0.2
				c0.4,0.1,0.8,0.3,1.1,0.5s0.6,0.5,0.9,0.8s0.5,0.6,0.7,1s0.3,0.7,0.4,1.1c0.1,0.4,0.1,0.8,0.1,1.2c0,0.6-0.1,1.2-0.3,1.8
				c-0.2,0.6-0.5,1.1-0.9,1.5c-0.4,0.4-0.9,0.8-1.4,1.1c-0.6,0.3-1.2,0.4-1.8,0.4h-3v4.7c0,0.3-0.2,0.4-0.5,0.4h-2.9
				c-0.3,0-0.4-0.1-0.4-0.4V85.3z M276.2,88v3.3h2.1c0.2,0,0.5,0,0.6-0.1c0.2-0.1,0.3-0.2,0.5-0.4c0.1-0.2,0.2-0.3,0.3-0.5
				c0.1-0.2,0.1-0.4,0.1-0.6c0-0.2,0-0.4-0.1-0.6c-0.1-0.2-0.2-0.4-0.3-0.5s-0.3-0.3-0.5-0.4c-0.2-0.1-0.4-0.1-0.6-0.1H276.2z"/>
			<path class="st0" d="M290.2,85.3c0-0.1,0-0.2,0.1-0.3s0.2-0.1,0.3-0.1h6.6c0.7,0,1.3,0.1,1.9,0.4s1.1,0.7,1.5,1.1
				c0.4,0.5,0.7,1,1,1.6c0.2,0.6,0.3,1.2,0.3,1.8c0,0.4-0.1,0.8-0.2,1.2c-0.1,0.4-0.3,0.8-0.5,1.1s-0.5,0.7-0.8,1
				c-0.3,0.3-0.6,0.6-1,0.8l2.8,5.3c0.1,0.1,0.1,0.2,0,0.3s-0.1,0.1-0.3,0.1h-3.6c-0.1,0-0.2,0-0.3-0.1s-0.1-0.2-0.2-0.3l-2.3-4.5
				H294v4.5c0,0.3-0.1,0.4-0.4,0.4h-3c-0.3,0-0.4-0.1-0.4-0.4V85.3z M294,87.9v3.6h2.2c0.3,0,0.5-0.1,0.7-0.2
				c0.2-0.1,0.4-0.2,0.6-0.4c0.2-0.2,0.3-0.4,0.4-0.6c0.1-0.2,0.1-0.4,0.1-0.7c0-0.2,0-0.4-0.1-0.6s-0.2-0.4-0.4-0.6
				c-0.2-0.2-0.3-0.3-0.6-0.4c-0.2-0.1-0.5-0.2-0.7-0.2H294z"/>
			<path class="st0" d="M308.5,85.3c0-0.3,0.1-0.4,0.4-0.4h3c0.3,0,0.4,0.1,0.4,0.4v13.9c0,0.3-0.1,0.4-0.4,0.4h-3
				c-0.3,0-0.4-0.1-0.4-0.4V85.3z"/>
			<path class="st0" d="M319.5,97.3c-0.1-0.1-0.1-0.1-0.2-0.2c-0.1-0.1-0.1-0.1-0.1-0.2c0-0.1,0-0.1,0-0.2c0-0.1,0.1-0.2,0.2-0.2
				l1.7-1.6c0.1-0.1,0.3-0.2,0.4-0.1s0.3,0.1,0.4,0.2c0.2,0.2,0.4,0.3,0.6,0.5c0.2,0.2,0.5,0.3,0.7,0.5c0.3,0.2,0.5,0.3,0.8,0.4
				c0.3,0.1,0.6,0.2,0.9,0.2c0.3,0,0.6,0,0.8-0.1c0.2-0.1,0.4-0.2,0.5-0.3c0.1-0.1,0.2-0.3,0.3-0.4s0.1-0.3,0.1-0.5
				c0-0.2-0.1-0.4-0.2-0.6s-0.3-0.3-0.5-0.4c-0.2-0.1-0.4-0.2-0.7-0.3c-0.2-0.1-0.4-0.2-0.6-0.2c-0.8-0.3-1.5-0.6-2.1-0.9
				s-1.1-0.7-1.5-1.1c-0.4-0.4-0.7-0.8-0.9-1.3c-0.2-0.5-0.3-1-0.3-1.6c0-0.6,0.1-1.2,0.4-1.7s0.6-0.9,1.1-1.3
				c0.5-0.4,1-0.6,1.7-0.8s1.4-0.3,2.2-0.3c0.4,0,0.9,0,1.4,0.1c0.5,0.1,0.9,0.2,1.3,0.4s0.8,0.4,1.2,0.6c0.4,0.2,0.7,0.5,0.9,0.8
				c0.1,0.2,0.2,0.3,0.2,0.5s-0.1,0.3-0.2,0.5l-1.5,1.6c-0.1,0.1-0.3,0.2-0.4,0.1c-0.1,0-0.3-0.1-0.4-0.3c-0.2-0.2-0.4-0.3-0.6-0.5
				s-0.5-0.3-0.8-0.4c-0.2-0.1-0.4-0.1-0.7-0.1c-0.3,0-0.6,0-0.8,0c-0.3,0.1-0.5,0.2-0.7,0.3s-0.3,0.4-0.3,0.6
				c0,0.2,0.1,0.3,0.2,0.5c0.1,0.1,0.3,0.3,0.5,0.4c0.2,0.1,0.4,0.2,0.7,0.3c0.3,0.1,0.6,0.2,1,0.3c0.7,0.2,1.3,0.5,1.9,0.7
				s1.1,0.6,1.5,0.9s0.7,0.8,1,1.2c0.2,0.5,0.3,1.1,0.3,1.8c0,0.7-0.1,1.4-0.4,2s-0.7,1.1-1.2,1.5c-0.5,0.4-1.1,0.7-1.8,1
				s-1.4,0.3-2.3,0.3c-0.5,0-1-0.1-1.5-0.2c-0.5-0.1-1-0.3-1.5-0.5c-0.5-0.2-0.9-0.5-1.3-0.8C320.2,97.9,319.8,97.6,319.5,97.3z"/>
			<path class="st0" d="M337.3,85.3c0-0.3,0.1-0.4,0.4-0.4h9.9c0.3,0,0.4,0.1,0.4,0.4v2.5c0,0.3-0.1,0.4-0.4,0.4h-6.5v2.4h4.9
				c0.2,0,0.3,0,0.4,0.1s0.1,0.2,0.1,0.3v2c0,0.3-0.2,0.4-0.5,0.4h-4.9v2.5h6.7c0.3,0,0.4,0.1,0.4,0.4v2.5c0,0.3-0.1,0.4-0.4,0.4
				h-10.1c-0.3,0-0.4-0.1-0.4-0.4V85.3z"/>
			<path class="st0" d="M354.6,97.3c-0.1-0.1-0.1-0.1-0.2-0.2c-0.1-0.1-0.1-0.1-0.1-0.2c0-0.1,0-0.1,0-0.2c0-0.1,0.1-0.2,0.2-0.2
				l1.7-1.6c0.1-0.1,0.3-0.2,0.4-0.1s0.3,0.1,0.4,0.2c0.2,0.2,0.4,0.3,0.6,0.5c0.2,0.2,0.5,0.3,0.7,0.5c0.3,0.2,0.5,0.3,0.8,0.4
				s0.6,0.2,0.9,0.2c0.3,0,0.6,0,0.8-0.1c0.2-0.1,0.4-0.2,0.5-0.3s0.2-0.3,0.3-0.4s0.1-0.3,0.1-0.5c0-0.2-0.1-0.4-0.2-0.6
				c-0.1-0.2-0.3-0.3-0.5-0.4c-0.2-0.1-0.4-0.2-0.7-0.3c-0.2-0.1-0.4-0.2-0.6-0.2c-0.8-0.3-1.5-0.6-2.1-0.9s-1.1-0.7-1.5-1.1
				c-0.4-0.4-0.7-0.8-0.9-1.3c-0.2-0.5-0.3-1-0.3-1.6c0-0.6,0.1-1.2,0.4-1.7s0.6-0.9,1.1-1.3c0.5-0.4,1-0.6,1.7-0.8s1.4-0.3,2.2-0.3
				c0.4,0,0.9,0,1.4,0.1c0.5,0.1,0.9,0.2,1.3,0.4s0.8,0.4,1.2,0.6c0.4,0.2,0.7,0.5,0.9,0.8c0.1,0.2,0.2,0.3,0.2,0.5
				s-0.1,0.3-0.2,0.5l-1.5,1.6c-0.1,0.1-0.3,0.2-0.4,0.1c-0.1,0-0.3-0.1-0.4-0.3c-0.2-0.2-0.4-0.3-0.6-0.5c-0.3-0.2-0.5-0.3-0.8-0.4
				c-0.2-0.1-0.4-0.1-0.7-0.1c-0.3,0-0.6,0-0.8,0c-0.3,0.1-0.5,0.2-0.7,0.3c-0.2,0.1-0.3,0.4-0.3,0.6c0,0.2,0.1,0.3,0.2,0.5
				c0.1,0.1,0.3,0.3,0.5,0.4c0.2,0.1,0.4,0.2,0.7,0.3c0.3,0.1,0.6,0.2,1,0.3c0.7,0.2,1.3,0.5,1.9,0.7s1.1,0.6,1.5,0.9s0.7,0.8,1,1.2
				c0.2,0.5,0.3,1.1,0.3,1.8c0,0.7-0.1,1.4-0.4,2c-0.3,0.6-0.7,1.1-1.2,1.5c-0.5,0.4-1.1,0.7-1.8,1c-0.7,0.2-1.4,0.3-2.3,0.3
				c-0.5,0-1-0.1-1.5-0.2c-0.5-0.1-1-0.3-1.5-0.5c-0.5-0.2-0.9-0.5-1.3-0.8C355.3,97.9,354.9,97.6,354.6,97.3z"/>
		</g>
		
			<linearGradient id="SVGID_1_" gradientUnits="userSpaceOnUse" x1="32.4445" y1="80.7658" x2="50.5845" y2="80.7658" gradientTransform="matrix(1 0 0 -1 0 108.2202)">
			<stop  offset="0" style="stop-color:#429BFF"/>
			<stop  offset="0.24" style="stop-color:#429BFF"/>
		</linearGradient>
		<path class="st2" d="M32.6,29c-0.2,0.2-0.2,0.5,0,0.7c0,0,0.1,0.1,0.1,0.1l9.9,6.3c0.3,0.2,0.8,0.2,1-0.1l6.8-7.7
			c0.3-0.3,0.3-0.7,0-1l-7.9-8.4c-0.2-0.2-0.6-0.3-0.8-0.1c0,0-0.1,0-0.1,0.1L32.6,29z"/>
		
			<linearGradient id="SVGID_2_" gradientUnits="userSpaceOnUse" x1="117.64" y1="80.7658" x2="135.78" y2="80.7658" gradientTransform="matrix(1 0 0 -1 0 108.2202)">
			<stop  offset="0" style="stop-color:#429BFF"/>
			<stop  offset="0.16" style="stop-color:#4298FB"/>
			<stop  offset="0.34" style="stop-color:#408FEE"/>
			<stop  offset="0.52" style="stop-color:#3E81D8"/>
			<stop  offset="0.71" style="stop-color:#3B6DBA"/>
			<stop  offset="0.9" style="stop-color:#375393"/>
			<stop  offset="1" style="stop-color:#34437B"/>
		</linearGradient>
		<path class="st3" d="M135.6,29c0.2,0.2,0.2,0.5,0,0.7c0,0-0.1,0.1-0.1,0.1l-9.9,6.3c-0.3,0.2-0.8,0.2-1-0.1l-6.8-7.7
			c-0.3-0.3-0.3-0.7,0-1l7.9-8.4c0.2-0.2,0.6-0.3,0.8-0.1c0,0,0.1,0,0.1,0.1L135.6,29z"/>
		
			<linearGradient id="SVGID_3_" gradientUnits="userSpaceOnUse" x1="2.6435" y1="96.4573" x2="153.8309" y2="35.2105" gradientTransform="matrix(1 0 0 -1 0 108.2202)">
			<stop  offset="0" style="stop-color:#429BFF"/>
			<stop  offset="0.16" style="stop-color:#4298FB"/>
			<stop  offset="0.34" style="stop-color:#408FEE"/>
			<stop  offset="0.52" style="stop-color:#3E81D8"/>
			<stop  offset="0.71" style="stop-color:#3B6DBA"/>
			<stop  offset="0.9" style="stop-color:#375393"/>
			<stop  offset="1" style="stop-color:#34437B"/>
		</linearGradient>
		<path class="st4" d="M163.9,18.3l-37.1,25c-1.6,1.1-3.7,0.8-4.9-0.7L86.7,1.1c0,0-2.2-2.5-4.3,0L46.2,43c-1.2,1.4-3.3,1.7-4.9,0.7
			L2.1,18.2c0,0-2.8-1.8-1.9,1.4L15.1,75c0.5,1.9,2.2,3.2,4.2,3.2H149c1.9-0.1,3.6-1.4,4-3.3l12.9-55.3
			C165.9,19.6,166.6,16.4,163.9,18.3z"/>
		
			<linearGradient id="SVGID_4_" gradientUnits="userSpaceOnUse" x1="16.6" y1="12.5205" x2="151.224" y2="12.5205" gradientTransform="matrix(1 0 0 -1 0 108.2202)">
			<stop  offset="0" style="stop-color:#429BFF"/>
			<stop  offset="0.16" style="stop-color:#4298FB"/>
			<stop  offset="0.34" style="stop-color:#408FEE"/>
			<stop  offset="0.52" style="stop-color:#3E81D8"/>
			<stop  offset="0.71" style="stop-color:#3B6DBA"/>
			<stop  offset="0.9" style="stop-color:#375393"/>
			<stop  offset="1" style="stop-color:#34437B"/>
		</linearGradient>
		<path class="st5" d="M151.2,95.7c0,3.9,0.4,7-3.2,7H20.2c-3.6,0-3.6-3.1-3.6-7l0,0c0-3.9,0-7,3.6-7H148
			C151.6,88.7,151.2,91.8,151.2,95.7L151.2,95.7z"/>
	</g>
</g>
</svg>
