<?xml version="1.0" encoding="utf-8"?>
<!-- Generator: Adobe Illustrator 23.0.1, SVG Export Plug-In . SVG Version: 6.00 Build 0)  -->
<svg version="1.1" id="Calque_1" xmlns="http://www.w3.org/2000/svg" xmlns:xlink="http://www.w3.org/1999/xlink" x="0px" y="0px"
	 viewBox="0 0 468.8 107.2" style="enable-background:new 0 0 468.8 107.2;" xml:space="preserve">
<style type="text/css">
	.st0{fill:#3D987F;}
	.st1{enable-background:new    ;}
	.st2{opacity:0.5;fill:url(#SVGID_1_);enable-background:new    ;}
	.st3{opacity:0.5;fill:url(#SVGID_2_);enable-background:new    ;}
	.st4{fill:url(#SVGID_3_);}
	.st5{fill:url(#SVGID_4_);}
</style>
<title>Fichier 2</title>
<g>
	<g id="Calque_1-2">
		<path class="st0" d="M367.9,45.6c0-10.2,7.6-18.2,17.8-18.2s17.7,8.1,17.7,18.2s-7.5,18.2-17.7,18.2S367.9,55.8,367.9,45.6
			 M356.9,45.6c0,15.9,12.9,28.8,28.8,28.8s28.8-12.9,28.8-28.8c0-15.9-12.9-28.8-28.7-28.8C369.8,16.7,356.9,29.6,356.9,45.6
			C356.9,45.5,356.9,45.6,356.9,45.6 M228.2,71.9l-23.3-30.5l19.4-22c0.6-0.8,0.6-1.8-0.6-1.8H214c-0.9-0.1-1.8,0.3-2.3,1.1
			l-21,23.8V19.1c-0.1-0.8-0.7-1.5-1.6-1.6h-8c-0.8,0-1.4,0.6-1.5,1.4c0,0.1,0,0.1,0,0.2v53c0,1,0.5,1.5,1.4,1.5h8.1
			c1,0,1.5-0.5,1.5-1.5v-15l6.8-7.3l17,22.5c0.6,0.8,1.1,1.4,2,1.4h11C228.6,73.6,228.9,72.8,228.2,71.9 M269.1,49.9L253.5,58
			l9.4-26L269.1,49.9z M289.1,71.9L267.9,19c-0.2-0.9-1-1.5-1.9-1.5h-6.3c-0.9,0-1.7,0.6-1.9,1.5l-21.3,53c-0.4,1.1,0,1.6,1,1.6h11
			c1.2-0.7,24.1-13.1,24.1-13.1l5.5,11.7c0.2,0.8,1,1.4,1.9,1.4h8.2C289.1,73.6,289.6,73,289.1,71.9 M333.7,35.8
			c0,4.9-4,8.8-8.9,8.8c-0.1,0-0.2,0-0.3,0h-11.8V26.9h11.8c4.9-0.1,9,3.8,9.2,8.7C333.7,35.7,333.7,35.7,333.7,35.8 M345.7,72
			l-10.3-20.4c5.7-3.3,9.6-9.3,9.6-15.6c0-9.6-7.4-18.4-17.8-18.4h-24c-0.7-0.1-1.4,0.5-1.5,1.2c0,0.1,0,0.2,0,0.3v53
			c-0.1,0.7,0.4,1.4,1.1,1.5c0.1,0,0.2,0,0.4,0h8.1c0.7,0.1,1.4-0.4,1.5-1.1c0-0.1,0-0.2,0-0.4V54.2h11.5l9,18
			c0.5,1.1,0.9,1.3,1.8,1.3h9.8c0.6,0,1.1-0.4,1.1-1c0-0.2,0-0.4-0.1-0.6 M465.6,27.5c0.8-0.7,0.9-1.9,0.2-2.7
			c-0.1-0.1-0.1-0.2-0.2-0.2c-4.4-4.5-10.9-8.1-17.5-8.1c-12.1,0-20.4,6.4-20.4,15.6c0,8.6,6.5,13.4,18.8,17.1
			c4,1.1,10.6,2.7,10.6,7.5c0,3.8-3.5,7.3-9.5,7.3c-5.7,0-10-3.5-13.1-6.5c-0.9-0.8-1.7-1.2-2.6-0.4l-5.1,5c-1.1,1.1-0.4,2,0.4,2.9
			c5.3,5.8,12.8,9.1,20.6,9.3c10.9,0,21-6.8,21-17.2s-8.5-14.5-18.7-17.6c-6.5-1.8-11-3-11-7.2c0-5.2,4.8-6.2,8.7-6.2
			c4.4,0,8.4,3.2,10.8,5.2c1,0.8,1.9,1.4,2.9,0.5L465.6,27.5z"/>
		<g class="st1">
			<path class="st0" d="M180.5,85.4c0-0.3,0.1-0.4,0.4-0.4h10.8c0.3,0,0.4,0.1,0.4,0.4v2.5c0,0.3-0.1,0.4-0.4,0.4h-3.5v10.9
				c0,0.3-0.1,0.4-0.4,0.4h-2.9c-0.3,0-0.4-0.1-0.4-0.4V88.4h-3.5c-0.3,0-0.4-0.1-0.4-0.4V85.4z"/>
			<path class="st0" d="M198.9,85.4c0-0.3,0.1-0.4,0.4-0.4h9.9c0.3,0,0.4,0.1,0.4,0.4V88c0,0.3-0.1,0.4-0.4,0.4h-6.5v2.5h4.9
				c0.2,0,0.3,0,0.4,0.1c0.1,0.1,0.1,0.2,0.1,0.3v2.1c0,0.3-0.2,0.4-0.5,0.4h-4.9v2.5h6.7c0.3,0,0.4,0.1,0.4,0.4v2.5
				c0,0.3-0.1,0.4-0.4,0.4h-10.1c-0.3,0-0.4-0.1-0.4-0.4V85.4z"/>
			<path class="st0" d="M216.7,85.4c0-0.1,0-0.2,0.1-0.3c0.1-0.1,0.2-0.1,0.3-0.1h6.6c0.7,0,1.3,0.1,1.9,0.4
				c0.6,0.3,1.1,0.7,1.5,1.1c0.4,0.5,0.7,1,1,1.6s0.3,1.2,0.3,1.8c0,0.4-0.1,0.8-0.2,1.2c-0.1,0.4-0.3,0.8-0.5,1.1
				c-0.2,0.4-0.5,0.7-0.8,1s-0.6,0.6-1,0.8l2.8,5.3c0.1,0.1,0.1,0.2,0,0.3c0,0.1-0.1,0.1-0.3,0.1H225c-0.1,0-0.2,0-0.3-0.1
				s-0.1-0.2-0.2-0.3l-2.4-4.5h-1.6v4.5c0,0.3-0.1,0.4-0.4,0.4h-3c-0.3,0-0.4-0.1-0.4-0.4V85.4z M220.5,88.1v3.6h2.2
				c0.3,0,0.5-0.1,0.7-0.2c0.2-0.1,0.4-0.2,0.6-0.4c0.2-0.2,0.3-0.4,0.4-0.6c0.1-0.2,0.1-0.4,0.1-0.7c0-0.2,0-0.4-0.1-0.6
				c-0.1-0.2-0.2-0.4-0.4-0.6c-0.2-0.2-0.3-0.3-0.6-0.4c-0.2-0.1-0.5-0.2-0.7-0.2H220.5z"/>
			<path class="st0" d="M235.1,85.4c0-0.1,0-0.2,0.1-0.3c0.1-0.1,0.2-0.1,0.3-0.1h6.6c0.7,0,1.3,0.1,1.9,0.4
				c0.6,0.3,1.1,0.7,1.5,1.1c0.4,0.5,0.7,1,1,1.6c0.2,0.6,0.3,1.2,0.3,1.8c0,0.4-0.1,0.8-0.2,1.2c-0.1,0.4-0.3,0.8-0.5,1.1
				c-0.2,0.4-0.5,0.7-0.8,1s-0.6,0.6-1,0.8l2.8,5.3c0.1,0.1,0.1,0.2,0,0.3s-0.1,0.1-0.3,0.1h-3.6c-0.1,0-0.2,0-0.3-0.1
				c-0.1-0.1-0.1-0.2-0.2-0.3l-2.3-4.5h-1.6v4.5c0,0.3-0.1,0.4-0.4,0.4h-3c-0.3,0-0.4-0.1-0.4-0.4V85.4z M238.9,88.1v3.6h2.2
				c0.3,0,0.5-0.1,0.7-0.2c0.2-0.1,0.4-0.2,0.6-0.4c0.2-0.2,0.3-0.4,0.4-0.6c0.1-0.2,0.1-0.4,0.1-0.7c0-0.2,0-0.4-0.1-0.6
				c-0.1-0.2-0.2-0.4-0.4-0.6c-0.2-0.2-0.3-0.3-0.6-0.4s-0.5-0.2-0.7-0.2H238.9z"/>
			<path class="st0" d="M253.4,85.4c0-0.3,0.1-0.4,0.4-0.4h3c0.3,0,0.4,0.1,0.4,0.4v13.9c0,0.3-0.1,0.4-0.4,0.4h-3
				c-0.3,0-0.4-0.1-0.4-0.4V85.4z"/>
			<path class="st0" d="M264.1,85.4c0-0.3,0.1-0.4,0.4-0.4h10.8c0.3,0,0.4,0.1,0.4,0.4v2.5c0,0.3-0.1,0.4-0.4,0.4h-3.5v10.9
				c0,0.3-0.1,0.4-0.4,0.4h-2.9c-0.3,0-0.4-0.1-0.4-0.4V88.4h-3.5c-0.3,0-0.4-0.1-0.4-0.4V85.4z"/>
			<path class="st0" d="M280.5,92.4c0-0.7,0.1-1.4,0.3-2c0.2-0.6,0.4-1.3,0.8-1.8c0.3-0.6,0.7-1.1,1.2-1.5c0.5-0.5,1-0.9,1.5-1.2
				s1.2-0.6,1.8-0.8c0.6-0.2,1.3-0.3,2-0.3s1.4,0.1,2,0.3s1.3,0.4,1.8,0.8c0.6,0.3,1.1,0.7,1.5,1.2c0.5,0.5,0.9,1,1.2,1.5
				c0.3,0.6,0.6,1.2,0.8,1.8c0.2,0.6,0.3,1.3,0.3,2s-0.1,1.4-0.3,2c-0.2,0.6-0.4,1.3-0.8,1.8c-0.3,0.6-0.7,1.1-1.2,1.5
				c-0.5,0.5-1,0.9-1.5,1.2c-0.6,0.3-1.2,0.6-1.8,0.8c-0.6,0.2-1.3,0.3-2,0.3c-1,0-2-0.2-3-0.6c-0.9-0.4-1.7-0.9-2.4-1.6
				c-0.7-0.7-1.2-1.5-1.6-2.4C280.7,94.4,280.5,93.4,280.5,92.4z M284.4,92.4c0,0.5,0.1,1.1,0.3,1.5s0.5,0.9,0.8,1.3
				c0.3,0.4,0.7,0.6,1.2,0.8c0.5,0.2,1,0.3,1.5,0.3c0.5,0,1-0.1,1.5-0.3c0.5-0.2,0.9-0.5,1.2-0.8s0.6-0.8,0.8-1.3s0.3-1,0.3-1.5
				c0-0.5-0.1-1.1-0.3-1.5s-0.4-0.9-0.8-1.3c-0.3-0.4-0.7-0.6-1.2-0.8c-0.5-0.2-1-0.3-1.5-0.3c-0.5,0-1,0.1-1.5,0.3
				c-0.5,0.2-0.9,0.5-1.2,0.8c-0.3,0.4-0.6,0.8-0.8,1.3S284.4,91.8,284.4,92.4z"/>
			<path class="st0" d="M302.6,85.4c0-0.3,0.1-0.4,0.4-0.4h3c0.3,0,0.4,0.1,0.4,0.4v13.9c0,0.3-0.1,0.4-0.4,0.4h-3
				c-0.3,0-0.4-0.1-0.4-0.4V85.4z"/>
			<path class="st0" d="M314,85.4c0-0.1,0-0.2,0.1-0.3c0.1-0.1,0.2-0.1,0.3-0.1h6.6c0.7,0,1.3,0.1,1.9,0.4c0.6,0.3,1.1,0.7,1.5,1.1
				c0.4,0.5,0.7,1,1,1.6s0.3,1.2,0.3,1.8c0,0.4-0.1,0.8-0.2,1.2c-0.1,0.4-0.3,0.8-0.5,1.1c-0.2,0.4-0.5,0.7-0.8,1s-0.6,0.6-1,0.8
				l2.8,5.3c0.1,0.1,0.1,0.2,0,0.3s-0.1,0.1-0.3,0.1h-3.6c-0.1,0-0.2,0-0.3-0.1c-0.1-0.1-0.1-0.2-0.2-0.3l-2.4-4.5h-1.6v4.5
				c0,0.3-0.1,0.4-0.4,0.4h-3c-0.3,0-0.4-0.1-0.4-0.4V85.4z M317.8,88.1v3.6h2.2c0.3,0,0.5-0.1,0.7-0.2c0.2-0.1,0.4-0.2,0.6-0.4
				c0.2-0.2,0.3-0.4,0.4-0.6s0.1-0.4,0.1-0.7c0-0.2,0-0.4-0.1-0.6c-0.1-0.2-0.2-0.4-0.4-0.6c-0.2-0.2-0.3-0.3-0.6-0.4
				c-0.2-0.1-0.5-0.2-0.7-0.2H317.8z"/>
			<path class="st0" d="M332.3,85.4c0-0.3,0.1-0.4,0.4-0.4h9.9c0.3,0,0.4,0.1,0.4,0.4V88c0,0.3-0.1,0.4-0.4,0.4h-6.5v2.5h4.9
				c0.2,0,0.3,0,0.4,0.1c0.1,0.1,0.1,0.2,0.1,0.3v2.1c0,0.3-0.2,0.4-0.5,0.4h-4.9v2.5h6.7c0.3,0,0.4,0.1,0.4,0.4v2.5
				c0,0.3-0.1,0.4-0.4,0.4h-10.1c-0.3,0-0.4-0.1-0.4-0.4V85.4z"/>
			<path class="st0" d="M349.7,97.4c-0.1-0.1-0.1-0.1-0.2-0.2c-0.1-0.1-0.1-0.1-0.1-0.2s0-0.1,0-0.2s0.1-0.2,0.2-0.2l1.7-1.6
				c0.1-0.1,0.3-0.2,0.4-0.1s0.3,0.1,0.4,0.2c0.2,0.2,0.4,0.3,0.6,0.5c0.2,0.2,0.5,0.3,0.7,0.5c0.3,0.2,0.5,0.3,0.8,0.4
				s0.6,0.2,0.9,0.2c0.3,0,0.6,0,0.8-0.1c0.2-0.1,0.4-0.2,0.5-0.3c0.1-0.1,0.2-0.3,0.3-0.4c0-0.2,0.1-0.3,0.1-0.5
				c0-0.2-0.1-0.4-0.2-0.6c-0.1-0.2-0.3-0.3-0.5-0.4c-0.2-0.1-0.4-0.2-0.7-0.3s-0.4-0.2-0.6-0.2c-0.8-0.3-1.5-0.6-2.1-0.9
				c-0.6-0.3-1.1-0.7-1.5-1.1s-0.7-0.8-0.9-1.3c-0.2-0.5-0.3-1-0.3-1.6c0-0.6,0.1-1.2,0.4-1.7c0.3-0.5,0.6-0.9,1.1-1.3
				s1-0.6,1.7-0.8c0.7-0.2,1.4-0.3,2.2-0.3c0.4,0,0.9,0,1.4,0.1s0.9,0.2,1.3,0.4s0.8,0.4,1.2,0.6c0.4,0.2,0.7,0.5,0.9,0.8
				c0.1,0.2,0.2,0.3,0.2,0.5c0,0.1-0.1,0.3-0.2,0.5l-1.5,1.6c-0.1,0.1-0.3,0.2-0.4,0.1c-0.1,0-0.3-0.1-0.4-0.3
				c-0.2-0.2-0.4-0.3-0.6-0.5s-0.5-0.3-0.8-0.4c-0.2-0.1-0.4-0.1-0.7-0.1c-0.3,0-0.6,0-0.8,0s-0.5,0.2-0.7,0.3s-0.3,0.4-0.3,0.6
				c0,0.2,0.1,0.3,0.2,0.5s0.3,0.3,0.5,0.4c0.2,0.1,0.4,0.2,0.7,0.3c0.3,0.1,0.6,0.2,1,0.3c0.7,0.2,1.3,0.5,1.9,0.7
				c0.6,0.3,1.1,0.6,1.5,0.9s0.7,0.8,1,1.2s0.3,1.1,0.3,1.8c0,0.7-0.1,1.4-0.4,2c-0.3,0.6-0.7,1.1-1.2,1.5c-0.5,0.4-1.1,0.7-1.8,1
				s-1.4,0.3-2.3,0.3c-0.5,0-1-0.1-1.5-0.2s-1-0.3-1.5-0.5c-0.5-0.2-0.9-0.5-1.3-0.8C350.4,98.1,350.1,97.8,349.7,97.4z"/>
		</g>
		
			<linearGradient id="SVGID_1_" gradientUnits="userSpaceOnUse" x1="32.5045" y1="80.6656" x2="50.6819" y2="80.6656" gradientTransform="matrix(1 0 0 -1 0 108.2202)">
			<stop  offset="0" style="stop-color:#7FD3C5"/>
			<stop  offset="0.22" style="stop-color:#70C4B5"/>
			<stop  offset="1" style="stop-color:#3C9480"/>
		</linearGradient>
		<path class="st2" d="M32.7,29.1c-0.2,0.2-0.2,0.5,0,0.7c0,0,0.1,0.1,0.1,0.1l9.9,6.3c0.3,0.2,0.7,0.1,1-0.1l6.8-7.7
			c0.3-0.3,0.3-0.7,0-1L42.6,19c-0.2-0.2-0.6-0.3-0.8-0.1c0,0,0,0-0.1,0.1L32.7,29.1z"/>
		
			<linearGradient id="SVGID_2_" gradientUnits="userSpaceOnUse" x1="117.85" y1="80.6639" x2="136.02" y2="80.6639" gradientTransform="matrix(1 0 0 -1 0 108.2202)">
			<stop  offset="0" style="stop-color:#7FD3C5"/>
			<stop  offset="0.22" style="stop-color:#70C4B5"/>
			<stop  offset="1" style="stop-color:#3C9480"/>
		</linearGradient>
		<path class="st3" d="M135.9,29.1c0.2,0.2,0.2,0.5,0,0.7c0,0-0.1,0.1-0.1,0.1l-9.9,6.3c-0.3,0.2-0.7,0.1-1-0.1l-6.9-7.7
			c-0.3-0.3-0.3-0.7,0-1l8-8.4c0.2-0.2,0.6-0.3,0.8-0.1c0,0,0.1,0,0.1,0.1L135.9,29.1z"/>
		
			<linearGradient id="SVGID_3_" gradientUnits="userSpaceOnUse" x1="2.6572" y1="96.4674" x2="154.131" y2="35.0999" gradientTransform="matrix(1 0 0 -1 0 108.2202)">
			<stop  offset="0" style="stop-color:#7FD3C5"/>
			<stop  offset="0.22" style="stop-color:#70C4B5"/>
			<stop  offset="1" style="stop-color:#3C9480"/>
		</linearGradient>
		<path class="st4" d="M164.2,18.3l-37.1,25c-1.6,1.1-3.7,0.8-4.9-0.7L86.9,1.1c0,0-2.2-2.5-4.3,0l-36.2,42
			c-1.2,1.4-3.3,1.7-4.9,0.7L2.1,18.2c0,0-2.8-1.8-1.9,1.4l15,55.5c0.5,1.9,2.2,3.2,4.2,3.2h129.9c1.9,0,3.6-1.4,4.1-3.2l12.9-55.4
			C166.2,19.7,166.9,16.4,164.2,18.3z"/>
		
			<linearGradient id="SVGID_4_" gradientUnits="userSpaceOnUse" x1="16.63" y1="12.3605" x2="151.4348" y2="12.3605" gradientTransform="matrix(1 0 0 -1 0 108.2202)">
			<stop  offset="0" style="stop-color:#7FD3C5"/>
			<stop  offset="0.22" style="stop-color:#70C4B5"/>
			<stop  offset="1" style="stop-color:#3C9480"/>
		</linearGradient>
		<path class="st5" d="M151.4,95.9c0,3.9,0.4,7-3.2,7H20.3c-3.6,0-3.6-3.2-3.6-7l0,0c0-3.9,0-7,3.6-7h127.9
			C151.8,88.9,151.4,92,151.4,95.9L151.4,95.9z"/>
	</g>
</g>
</svg>
