<svg height='100px' width='100px'  fill="#000000" version="1.1" xmlns="http://www.w3.org/2000/svg" xmlns:xlink="http://www.w3.org/1999/xlink" x="0px" y="0px" viewBox="0 0 100 100" enable-background="new 0 0 100 99.864" xml:space="preserve">
		<path fill="#fff" d="M43.253,47.189c0,2.625-2.128,4.754-4.753,4.754c-2.626,0-4.754-2.129-4.754-4.754
			c0-2.626,2.128-4.755,4.754-4.755C41.125,42.434,43.253,44.561,43.253,47.189" />
		<path fill="#fff" d="M66.343,47.189c0,2.625-2.126,4.754-4.754,4.754c-2.624,0-4.754-2.129-4.754-4.754
			c0-2.626,2.13-4.755,4.754-4.755C64.217,42.434,66.343,44.561,66.343,47.189" />
		<path fill="#fff" d="M36.449,65.504c2.176,5.564,7.25,9.507,13.582,9.507c6.335,0,11.408-3.944,13.584-9.507H36.449z" />
		<path fill="#fff" d="M51.723,20.728c0-0.016,0.007-0.028,0.007-0.045v-6.98l12.334,2.157c0.072,0.014,0.149,0.021,0.222,0.024
			c0,0,0.191,0.009,0.504,0.009c3.062,0,5.087-0.63,6.018-1.874c0.567-0.757,0.66-1.704,0.242-2.536
			c-0.99-1.976-4.866-2.812-6.28-2.812c-0.538,0.003-9.113,0.911-14.176,1.45c-0.074,0.009-0.139,0.047-0.207,0.065
			c-0.117-0.028-0.228-0.073-0.354-0.073c-0.183,0-0.354,0.051-0.517,0.104c-0.108-0.031-0.207-0.082-0.32-0.095
			C44.131,9.584,35.56,8.675,34.982,8.672c-1.377,0-5.255,0.837-6.245,2.812c-0.415,0.832-0.326,1.78,0.241,2.536
			c0.933,1.244,2.961,1.874,6.021,1.874c0.311,0,0.501-0.008,0.501-0.008c0.072-0.004,0.148-0.012,0.223-0.025l12.611-2.207v7.031
			c0,0.016,0.009,0.029,0.012,0.044c-17.22,0.877-30.911,15.117-30.911,32.554c0,18.003,14.595,32.598,32.597,32.598
			c18.006,0,32.6-14.595,32.6-32.598C82.63,35.844,68.94,21.605,51.723,20.728 M72.113,37.519h-9.431
			c-0.395-2.291-1.726-6.507-6.082-10.567C62.947,28.538,68.409,32.347,72.113,37.519 M49.819,26.161
			c6.868,3.981,8.848,8.841,9.406,11.358H40.412C40.97,35.002,42.948,30.142,49.819,26.161 M42.869,27.108
			c-4.227,4.01-5.522,8.149-5.91,10.412h-9.006C31.538,32.508,36.774,28.777,42.869,27.108 M50.031,80.446
			c-14.979,0-27.165-12.186-27.165-27.165c0-4.455,1.1-8.654,3.009-12.366h35.248h0.031h13.034c1.91,3.714,3.007,7.911,3.007,12.366
			C77.195,68.261,65.01,80.446,50.031,80.446" />
		<path fill="#fff" d="M36.462,65.527c2.176,5.561,7.25,9.504,13.582,9.504s11.407-3.945,13.584-9.504H36.462z" />
	</svg>