<svg xmlns="http://www.w3.org/2000/svg" viewBox="0 0 166.11 102.71"><defs><style>.cls-1,.cls-2{fill:#fff;}.cls-1{opacity:0.5;isolation:isolate;}</style></defs><title>Fichier 1</title><g id="Calque_2" data-name="Calque 2"><g id="Calque_1-2" data-name="Calque 1"><g id="Calque_1-2-2" data-name="Calque 1-2"><path class="cls-1" d="M32.68,29a.48.48,0,0,0,0,.7l.1.1,9.9,6.3a.92.92,0,0,0,1-.1l6.8-7.7a.67.67,0,0,0,0-1l-7.9-8.4a.62.62,0,0,0-.8-.1.1.1,0,0,0-.1.1Z"/><path class="cls-1" d="M135.68,29a.48.48,0,0,1,0,.7l-.1.1-9.9,6.3a.92.92,0,0,1-1-.1l-6.8-7.7a.67.67,0,0,1,0-1h0l7.9-8.4a.62.62,0,0,1,.8-.1.1.1,0,0,1,.1.1Z"/><path class="cls-2" d="M164,18.31l-37.1,25a3.6,3.6,0,0,1-4.9-.7L86.78,1.11a2.7,2.7,0,0,0-4.3,0l-36.2,42a3.81,3.81,0,0,1-4.9.7L2.08,18.21s-2.8-1.8-1.9,1.4l15,55.4a4.38,4.38,0,0,0,4.2,3.2h129.7a4.26,4.26,0,0,0,4.1-3.2l12.9-55.3C166,19.71,166.78,16.41,164,18.31Z"/><path class="cls-2" d="M151.28,95.71c0,3.9.4,7-3.2,7H20.28c-3.6,0-3.6-3.1-3.6-7h0c0-3.9,0-7,3.6-7h127.8c3.6,0,3.2,3.2,3.2,7Z"/></g></g></g></svg>