<?xml version="1.0" encoding="UTF-8" standalone="no"?>
<!-- Created with Inkscape (http://www.inkscape.org/) -->

<svg
   xmlns:dc="http://purl.org/dc/elements/1.1/"
   xmlns:cc="http://creativecommons.org/ns#"
   xmlns:rdf="http://www.w3.org/1999/02/22-rdf-syntax-ns#"
   xmlns:svg="http://www.w3.org/2000/svg"
   xmlns="http://www.w3.org/2000/svg"
   xmlns:sodipodi="http://sodipodi.sourceforge.net/DTD/sodipodi-0.dtd"
   xmlns:inkscape="http://www.inkscape.org/namespaces/inkscape"
   width="105.83334mm"
   height="105.83334mm"
   viewBox="0 0 375.00001 375.00001"
   id="svg5220"
   version="1.1"
   inkscape:version="0.92.2 5c3e80d, 2017-08-06"
   sodipodi:docname="N2I2018-monochrome-blanc.svg">
  <defs
     id="defs5222">
    <clipPath
       id="clipPath8253-2"
       clipPathUnits="userSpaceOnUse" />
  </defs>
  <sodipodi:namedview
     id="base"
     pagecolor="#ffffff"
     bordercolor="#666666"
     borderopacity="1.0"
     inkscape:pageopacity="0.0"
     inkscape:pageshadow="2"
     inkscape:zoom="1.4142136"
     inkscape:cx="121.18678"
     inkscape:cy="196.17452"
     inkscape:document-units="px"
     inkscape:current-layer="layer3"
     showgrid="false"
     inkscape:window-width="1440"
     inkscape:window-height="856"
     inkscape:window-x="-1"
     inkscape:window-y="0"
     inkscape:window-maximized="0"
     inkscape:snap-global="false"
     showguides="false"
     fit-margin-top="0"
     fit-margin-left="0"
     fit-margin-right="0"
     fit-margin-bottom="0">
    <inkscape:grid
       type="xygrid"
       id="grid17998"
       originx="1107.6419"
       originy="-318.18607" />
  </sodipodi:namedview>
  <metadata
     id="metadata5225">
    <rdf:RDF>
      <cc:Work
         rdf:about="">
        <dc:format>image/svg+xml</dc:format>
        <dc:type
           rdf:resource="http://purl.org/dc/dcmitype/StillImage" />
        <dc:title></dc:title>
      </cc:Work>
    </rdf:RDF>
  </metadata>
  <g
     inkscape:groupmode="layer"
     id="layer2"
     inkscape:label="fond"
     style="display:inline;opacity:1"
     transform="translate(1107.642,-359.17612)" />
  <g
     inkscape:label="Calque 1"
     inkscape:groupmode="layer"
     id="layer1"
     style="display:inline;opacity:0.61400003"
     transform="translate(1107.642,-359.17612)">
    <g
       id="g6955"
       transform="matrix(0.77380785,0.15075877,-0.15075877,0.77380785,1603.8179,-1899.2717)" />
    <path
       sodipodi:nodetypes="ccccc"
       style="fill:#5a6a39;fill-opacity:0.53076938;stroke:none"
       d="m 1253.2001,1891.5317 9.4576,-2.4749 1.9445,5.6569 -10.5182,1.8562 z"
       id="path6706"
       inkscape:connector-curvature="0"
       clip-path="url(#clipPath8253-2)"
       transform="matrix(1.4245142,0,0,1.4245142,-3150.505,-2149.0158)" />
    <g
       transform="matrix(0.92814151,0.18082716,-0.18082716,0.92814151,1029.1373,-3158.0346)"
       id="g2480"
       style="stroke-width:0.83371753" />
    <path
       transform="matrix(1.7086293,0,0,1.7086293,-4673.4211,-3457.5894)"
       clip-path="url(#clipPath8253-2)"
       inkscape:connector-curvature="0"
       id="path2482"
       d="m 1253.2001,1891.5317 9.4576,-2.4749 1.9445,5.6569 -10.5182,1.8562 z"
       style="fill:#5a6a39;fill-opacity:0.53076938;stroke:none;stroke-width:0.83371753"
       sodipodi:nodetypes="ccccc" />
    <g
       style="stroke-width:0.83371753"
       id="g3381"
       transform="matrix(0.92814151,0.18082716,-0.18082716,0.92814151,54.137298,-2295.5346)" />
    <path
       sodipodi:nodetypes="ccccc"
       style="fill:#5a6a39;fill-opacity:0.53076938;stroke:none;stroke-width:0.83371753"
       d="m 1253.2001,1891.5317 9.4576,-2.4749 1.9445,5.6569 -10.5182,1.8562 z"
       id="path3383"
       inkscape:connector-curvature="0"
       clip-path="url(#clipPath8253-2)"
       transform="matrix(1.7086293,0,0,1.7086293,-5648.4211,-2595.0894)" />
  </g>
  <g
     inkscape:groupmode="layer"
     id="layer3"
     inkscape:label="textes"
     transform="translate(1107.642,-359.17612)">
    <path
       style="opacity:1;fill:#ffffff;fill-opacity:1;fill-rule:nonzero;stroke:none;stroke-width:5.25057554;stroke-linecap:round;stroke-linejoin:round;stroke-miterlimit:4;stroke-dasharray:none;stroke-dashoffset:0;stroke-opacity:1"
       d="M 73.529297 55.388672 A 8.3519943 17.404197 80.4398 0 0 73.234375 55.392578 A 8.3519943 17.404197 80.4398 0 0 68.101562 55.875 A 8.3519943 17.404197 80.4398 0 0 52.380859 65.277344 C 52.202193 65.68033 52.132718 66.139423 52.208984 66.609375 L 53.441406 74.199219 C 53.64898 75.478035 54.839188 76.339787 56.109375 76.130859 L 63.458984 74.921875 L 65.519531 87.621094 C 55.892117 90.235846 47.048178 94.625176 39.400391 100.39453 L 35.126953 95.169922 L 38.742188 92.171875 C 39.394348 91.631032 39.486392 90.666288 38.949219 90.009766 L 34.238281 84.253906 C 33.902601 83.84357 33.404795 83.6541 32.917969 83.701172 C 32.625809 83.729332 32.336384 83.844038 32.091797 84.046875 L 16.958984 96.597656 C 16.306824 97.138499 16.21478 98.10129 16.751953 98.757812 L 21.460938 104.51562 C 21.998111 105.17215 22.955369 105.2635 23.607422 104.72266 L 27.222656 101.72461 L 31.642578 107.125 C 18.651857 120.06812 10.664062 137.61504 10.664062 156.93555 C 10.664062 196.72379 44.534176 229.01758 86.263672 229.01758 C 114.65045 229.01758 139.38623 214.07694 152.31055 191.99609 C 69.795097 220.04641 30.753373 121.42161 80.609375 85.304688 L 80.939453 85.25 L 80.912109 85.082031 C 80.930243 85.068805 80.948664 85.055875 80.966797 85.042969 C 80.94653 85.042969 80.926517 85.044742 80.90625 85.046875 L 78.853516 72.388672 L 85.894531 71.230469 C 87.164718 71.021509 88.019967 69.823706 87.8125 68.544922 L 86.626953 61.236328 A 8.3519943 17.404197 80.4398 0 0 86.613281 61.185547 L 86.576172 60.955078 C 86.519639 60.608113 86.389965 60.293954 86.207031 60.021484 A 8.3519943 17.404197 80.4398 0 0 73.53125 55.388672 A 8.3519943 17.404197 80.4398 0 0 73.529297 55.388672 z M 69.560547 57.085938 C 69.618147 57.090204 69.662319 57.098668 69.693359 57.113281 C 65.091226 58.365559 56.774695 63.204472 55.363281 65.800781 C 54.217148 67.909283 54.222656 70.943359 54.222656 70.943359 C 54.222656 70.943359 53.755533 68.263733 53.875 65.851562 C 54.07628 61.79025 67.787853 56.956241 69.560547 57.085938 z M 388.60742 65.652344 L 388.60742 73.140625 L 392.39258 73.140625 L 392.39258 65.652344 L 388.60742 65.652344 z M 184.7168 66.087891 L 184.7168 89.818359 L 201.31641 89.818359 L 201.31641 85.775391 L 189.29883 85.775391 L 189.29883 66.087891 L 184.7168 66.087891 z M 210.8125 66.087891 L 201.81445 89.818359 L 206.5293 89.818359 L 208.6875 83.902344 L 216.91992 83.902344 L 219.11133 89.818359 L 223.82617 89.818359 L 214.86133 66.087891 L 210.8125 66.087891 z M 233.34961 66.087891 L 233.34961 89.818359 L 237.93164 89.818359 L 237.93164 74.611328 L 250.04883 89.818359 L 253.76758 89.818359 L 253.76758 66.121094 L 249.18555 66.121094 L 249.18555 81.664062 L 236.90234 66.087891 L 233.34961 66.087891 z M 258.37109 66.087891 L 258.37109 78.1875 C 258.37109 79.725047 258.54822 81.206658 258.90234 82.632812 C 259.27864 84.058999 259.87638 85.318252 260.69531 86.410156 C 261.51425 87.479778 262.57699 88.349087 263.88281 89.017578 C 265.21082 89.663797 266.81592 89.986328 268.69727 89.986328 C 270.5122 89.986328 272.07304 89.674717 273.37891 89.050781 C 274.68474 88.426845 275.74742 87.579387 276.56641 86.509766 C 277.40746 85.440144 278.01439 84.19178 278.39062 82.765625 C 278.78901 81.339481 278.98828 79.814209 278.98828 78.1875 L 278.98828 66.087891 L 274.44141 66.087891 L 274.44141 78.1875 C 274.44141 79.167959 274.34167 80.126553 274.14258 81.0625 C 273.96549 81.976121 273.6445 82.788854 273.17969 83.501953 C 272.73704 84.214998 272.13925 84.794538 271.38672 85.240234 C 270.6563 85.685888 269.7486 85.908203 268.66406 85.908203 C 267.60166 85.908203 266.70499 85.696819 265.97461 85.273438 C 265.2442 84.827752 264.64645 84.248212 264.18164 83.535156 C 263.73896 82.822068 263.41793 82.009325 263.21875 81.095703 C 263.04167 80.159756 262.95312 79.190231 262.95312 78.1875 L 262.95312 66.087891 L 258.37109 66.087891 z M 283.60352 66.087891 L 283.60352 89.818359 L 288.18555 89.818359 L 288.18555 66.087891 L 283.60352 66.087891 z M 291.07812 66.087891 L 291.07812 70.130859 L 298.61523 70.130859 L 298.61523 89.818359 L 303.16406 89.818359 L 303.16406 70.130859 L 310.70117 70.130859 L 310.70117 66.087891 L 291.07812 66.087891 z M 320.69531 66.087891 L 320.69531 89.818359 L 329.25977 89.818359 C 331.03044 89.818359 332.62448 89.541463 334.04102 88.984375 C 335.47966 88.404994 336.70843 87.601228 337.72656 86.576172 C 338.74471 85.528822 339.51957 84.282411 340.05078 82.833984 C 340.60411 81.363264 340.88086 79.724925 340.88086 77.919922 C 340.88086 76.293212 340.63733 74.765998 340.15039 73.339844 C 339.66346 71.891374 338.93283 70.632079 337.95898 69.5625 C 336.9851 68.492879 335.76743 67.647406 334.30664 67.023438 C 332.86795 66.399501 331.18536 66.087891 329.25977 66.087891 L 320.69531 66.087891 z M 344.42773 66.087891 L 344.42773 89.818359 L 360.79492 89.818359 L 360.79492 85.775391 L 349.00977 85.775391 L 349.00977 79.591797 L 358.93555 79.591797 L 358.93555 75.847656 L 349.00977 75.847656 L 349.00977 70.130859 L 360.49609 70.130859 L 360.49609 66.087891 L 344.42773 66.087891 z M 372.375 66.087891 L 372.375 89.818359 L 388.97461 89.818359 L 388.97461 85.775391 L 376.95703 85.775391 L 376.95703 66.087891 L 372.375 66.087891 z M 325.27539 70.130859 L 329.25977 70.130859 C 330.36642 70.130859 331.35165 70.320413 332.21484 70.699219 C 333.10021 71.078067 333.84186 71.613914 334.43945 72.304688 C 335.03704 72.995504 335.49093 73.819157 335.80078 74.777344 C 336.11066 75.735552 336.26562 76.783452 336.26562 77.919922 C 336.26562 79.034109 336.11066 80.069125 335.80078 81.027344 C 335.49093 81.98552 335.03704 82.822068 334.43945 83.535156 C 333.86399 84.22594 333.13337 84.772697 332.24805 85.173828 C 331.3848 85.574916 330.38856 85.775391 329.25977 85.775391 L 325.27539 85.775391 L 325.27539 70.130859 z M 212.83789 71.333984 L 216.08984 80.660156 L 209.45117 80.660156 L 212.83789 71.333984 z M 88.466797 82.318359 A 2.8052801 2.8243431 0 0 0 85.662109 85.142578 A 2.8052801 2.8243431 0 0 0 88.466797 87.966797 A 2.8052801 2.8243431 0 0 0 91.273438 85.142578 A 2.8052801 2.8243431 0 0 0 88.466797 82.318359 z M 102.34375 84.011719 A 2.8052801 2.8243431 0 0 0 99.537109 86.835938 A 2.8052801 2.8243431 0 0 0 102.34375 89.660156 A 2.8052801 2.8243431 0 0 0 105.14844 86.835938 A 2.8052801 2.8243431 0 0 0 102.34375 84.011719 z M 115.73828 87.439453 A 2.8052801 2.8243431 0 0 0 112.93359 90.263672 A 2.8052801 2.8243431 0 0 0 115.73828 93.087891 A 2.8052801 2.8243431 0 0 0 118.54297 90.263672 A 2.8052801 2.8243431 0 0 0 115.73828 87.439453 z M 130.64648 88.521484 C 130.07606 88.547191 129.52193 88.820983 129.15039 89.318359 L 120.31055 101.15234 C 119.65002 102.03659 119.82485 103.28421 120.70312 103.94922 L 122.60938 105.39258 C 123.48765 106.05759 124.7262 105.88034 125.38672 104.99609 L 134.22656 93.162109 C 134.88709 92.277875 134.71226 91.030248 133.83398 90.365234 L 131.92773 88.923828 C 131.54347 88.632884 131.09013 88.501474 130.64648 88.521484 z M 363.99609 95.71875 C 363.3524 95.71875 362.3403 95.742769 360.96094 95.789062 C 359.58157 95.835356 358.04107 95.927537 356.33984 96.066406 C 354.6386 96.158993 352.84606 96.29727 350.96094 96.482422 C 349.07582 96.621302 347.30563 96.807617 345.65039 97.039062 C 343.99513 97.224257 342.54607 97.454683 341.30469 97.732422 C 340.06325 98.010171 339.21372 98.312687 338.75391 98.636719 C 338.20217 99.007033 337.6961 99.746435 337.23633 100.85742 C 336.77652 101.92215 336.33958 103.19643 335.92578 104.67773 C 335.55796 106.15907 335.2125 107.75596 334.89062 109.46875 C 334.56878 111.18156 334.29239 112.87063 334.0625 114.53711 C 333.83261 116.15731 333.64965 117.68411 333.51172 119.11914 C 333.37379 120.50788 333.30469 121.64197 333.30469 122.52148 C 333.30469 124.14172 333.39621 125.85481 333.58008 127.66016 C 333.80997 129.46551 334.08637 131.29484 334.4082 133.14648 C 334.77603 134.95188 335.21296 136.73313 335.71875 138.49219 C 336.22451 140.20496 336.7753 141.82589 337.37305 143.35352 C 337.60292 143.90904 337.85694 144.48807 338.13281 145.08984 C 338.40868 145.69166 338.72983 146.24666 339.09766 146.75586 C 339.41952 147.21876 340.20192 147.6115 341.44336 147.93555 C 342.73073 148.21333 344.22453 148.46777 345.92578 148.69922 C 347.67297 148.88438 349.53464 149.04667 351.51172 149.18555 C 353.48884 149.27813 355.37481 149.34825 357.16797 149.39453 C 359.00713 149.44082 360.63912 149.4869 362.06445 149.5332 L 365.09961 149.5332 C 366.89277 149.5332 368.82349 149.55722 370.89258 149.60352 C 372.9616 149.64981 375.03056 149.55562 377.09961 149.32422 C 379.16869 149.09276 381.14613 148.65396 383.03125 148.00586 C 384.96239 147.3115 386.61673 146.2696 387.99609 144.88086 C 388.22599 144.6494 388.45566 144.02427 388.68555 143.00586 C 388.91543 141.98744 389.12273 140.78328 389.30664 139.39453 C 389.53653 137.95949 389.7214 136.40866 389.85938 134.74219 C 390.04328 133.0757 390.18148 131.50282 390.27344 130.02148 C 390.41141 128.49389 390.50289 127.15143 390.54883 125.99414 C 390.64067 124.83685 390.70984 124.02735 390.75586 123.56445 C 390.80183 123.00898 390.82422 122.452 390.82422 121.89648 L 390.82422 120.0918 C 390.82422 119.49003 390.80183 118.68053 390.75586 117.66211 C 390.70989 116.64369 390.64077 115.53167 390.54883 114.32812 C 390.50285 113.07825 390.41137 111.78191 390.27344 110.43945 C 390.18149 109.097 390.06568 107.82468 389.92773 106.62109 C 389.78976 105.41752 389.60684 104.35359 389.37695 103.42773 C 389.19305 102.45566 388.98575 101.7143 388.75586 101.20508 C 388.47999 100.60331 387.78905 100.04825 386.68555 99.539062 C 385.58204 99.029836 384.24883 98.566999 382.68555 98.150391 C 381.16825 97.733772 379.51387 97.385161 377.7207 97.107422 C 375.9275 96.783347 374.15735 96.528913 372.41016 96.34375 C 370.66296 96.112294 369.03097 95.949998 367.51367 95.857422 C 366.04234 95.764835 364.8697 95.71875 363.99609 95.71875 z M 251.09375 95.857422 L 224.12695 95.998047 C 224.58674 104.88598 224.90984 113.72613 225.09375 122.52148 C 225.2777 131.31689 225.48497 140.15894 225.71484 149.04688 L 240.61133 149.46289 C 240.8872 143.21357 241.23269 137.01225 241.64648 130.85547 C 242.1063 124.65244 242.54325 118.4251 242.95703 112.17578 C 244.10651 115.04585 245.2548 117.89302 246.4043 120.7168 C 247.55374 123.54058 248.77314 126.36373 250.06055 129.1875 C 251.80774 133.02965 253.55355 136.84863 255.30078 140.64453 C 257.04797 144.39415 258.79578 148.19105 260.54297 152.0332 C 261.92234 151.80175 263.30227 151.61543 264.68164 151.47656 C 266.10698 151.33769 267.50931 151.26953 268.88867 151.26953 C 271.6934 151.26953 274.52042 151.33769 277.37109 151.47656 C 277.41707 147.40291 277.43945 143.39963 277.43945 139.46484 C 277.48543 135.48382 277.50977 131.45646 277.50977 127.38281 C 277.50977 122.56848 277.44065 117.77776 277.30273 113.00977 C 277.1648 108.24177 277.00422 103.45103 276.82031 98.636719 L 262.88867 96.96875 C 262.98073 102.8015 263.09449 108.588 263.23242 114.32812 C 263.41635 120.06825 263.53213 125.83272 263.57812 131.61914 C 262.24474 128.0084 260.91153 124.41987 259.57812 120.85547 C 258.24474 117.24472 257.04776 113.61207 255.99023 109.95508 C 255.2546 107.54792 254.47412 105.18569 253.64648 102.87109 C 252.86483 100.51026 252.0133 98.172003 251.09375 95.857422 z M 214.54102 98.775391 C 209.48335 99.145759 204.47161 99.468355 199.50586 99.746094 C 194.58615 99.977539 189.6211 100.18593 184.60938 100.37109 C 184.70143 102.31532 184.77046 104.2608 184.81641 106.20508 C 184.90825 108.10301 184.99984 110.02448 185.0918 111.96875 L 191.64453 112.80078 C 191.96638 117.10588 192.26514 121.38768 192.54102 125.64648 C 192.86285 129.90529 193.1373 134.21112 193.36719 138.5625 L 188.88477 138.63086 C 189.02266 140.89915 189.11415 143.14522 189.16016 145.36719 C 189.20602 147.5429 189.23047 149.76496 189.23047 152.0332 L 213.99023 151.61719 C 213.76036 150.50617 213.59782 149.37209 213.50586 148.21484 C 213.45989 147.05755 213.4375 145.89948 213.4375 144.74219 L 213.4375 140.57617 C 213.4375 139.18744 213.48423 137.82097 213.57617 136.47852 L 206.54102 136.33984 C 206.49504 134.39562 206.44833 132.49818 206.40234 130.64648 L 206.40234 124.88281 L 206.40234 120.0918 C 206.44821 118.51789 206.49503 116.92098 206.54102 115.30078 L 214.19531 115.57812 C 214.28726 112.80065 214.31165 110.02359 214.26562 107.24609 C 214.21965 104.42233 214.31116 101.59916 214.54102 98.775391 z M 304.47656 98.914062 C 301.80977 98.914062 299.16572 98.960148 296.54492 99.052734 C 293.9701 99.099028 291.34839 99.145102 288.68164 99.191406 L 288.68164 113.14844 L 288.68164 119.32812 C 288.68164 124.74422 288.65925 130.13801 288.61328 135.50781 C 288.56731 140.83129 288.42915 146.20108 288.19922 151.61719 L 306.33789 150.99219 C 306.33789 147.5203 306.24637 144.07007 306.0625 140.64453 C 305.8786 137.17269 305.55552 133.70234 305.0957 130.23047 C 307.16477 129.81386 309.23565 129.48926 311.30469 129.25781 C 313.41974 128.98004 315.51104 128.6094 317.58008 128.14648 L 315.64844 121.20312 L 304.19922 120.43945 L 303.64844 114.4668 C 307.60259 114.09644 311.51081 113.84201 315.37305 113.70312 C 319.28126 113.56427 323.23615 113.37988 327.23633 113.14844 C 327.23633 110.88014 327.09813 108.63407 326.82227 106.41211 C 326.59233 104.14381 326.33836 101.8997 326.0625 99.677734 C 322.43019 99.492572 318.82074 99.330318 315.23438 99.191406 C 311.64803 99.006244 308.06294 98.914062 304.47656 98.914062 z M 46.832031 99.75 C 49.740831 99.830853 51.994713 103.37663 51.876953 107.68359 C 51.759513 111.99045 49.313204 115.43833 46.404297 115.35742 C 43.495497 115.27753 41.241828 111.69941 41.359375 107.39258 C 41.476815 103.08569 43.923124 99.670043 46.832031 99.75 z M 87.423828 100.80273 L 87.121094 101.10742 L 85.394531 102.84375 L 85.394531 107.48242 L 86.621094 108.7168 L 87.423828 107.91016 L 87.423828 100.80273 z M 138.24805 102.80664 C 136.69886 102.80675 135.44151 104.07115 135.44141 105.63086 C 135.44151 107.19056 136.69886 108.45497 138.24805 108.45508 C 139.79725 108.45501 141.05263 107.19059 141.05273 105.63086 C 141.05263 104.07112 139.79725 102.80672 138.24805 102.80664 z M 86.623047 108.83984 L 86.496094 108.96875 L 85.394531 110.07422 L 85.394531 114.71289 L 87.423828 116.75586 L 87.423828 109.67188 L 86.623047 108.83984 z M 147.47461 112.77148 A 2.8052801 2.8243431 0 0 0 144.66992 115.5957 A 2.8052801 2.8243431 0 0 0 147.47461 118.41992 A 2.8052801 2.8243431 0 0 0 150.28125 115.5957 A 2.8052801 2.8243431 0 0 0 147.47461 112.77148 z M 361.99609 114.39844 C 362.63982 114.39844 363.74336 114.4205 365.30664 114.4668 C 366.86992 114.4668 368.47952 114.53688 370.13477 114.67578 C 371.83597 114.81465 373.37454 115.04706 374.75391 115.37109 C 376.17925 115.69514 377.07745 116.13393 377.44531 116.68945 C 377.95106 117.47639 378.24984 118.40208 378.3418 119.4668 C 378.43374 120.48521 378.47852 121.45701 378.47852 122.38281 C 378.47852 122.89205 378.45613 123.72552 378.41016 124.88281 C 378.41016 125.99377 378.36344 127.17396 378.27148 128.42383 C 378.17954 129.62741 378.04135 130.76146 377.85742 131.82617 C 377.67352 132.84458 377.44383 133.51581 377.16797 133.83984 C 376.80011 134.25646 375.97295 134.62714 374.68555 134.95117 C 373.44412 135.22895 372.06418 135.48341 370.54688 135.71484 C 369.07555 135.90002 367.65087 136.04024 366.27148 136.13281 C 364.93809 136.2254 363.99509 136.27148 363.44336 136.27148 L 361.71875 136.27148 C 360.93713 136.22519 360.01846 136.17911 358.96094 136.13281 C 357.9494 136.04023 356.89256 135.94609 355.78906 135.85352 C 354.6856 135.76093 353.62679 135.64668 352.61523 135.50781 C 351.64968 135.32262 350.82249 135.13633 350.13281 134.95117 C 349.44312 134.76602 349.02857 134.55762 348.89062 134.32617 C 348.66075 134.00214 348.47777 133.49322 348.33984 132.79883 C 348.2479 132.10447 348.15641 131.36314 348.06445 130.57617 C 347.97251 129.78923 347.90343 129.02584 347.85742 128.28516 L 347.85742 126.61914 C 347.85742 126.20253 347.87981 125.5313 347.92578 124.60547 C 347.97175 123.63338 348.04086 122.63756 348.13281 121.61914 C 348.27074 120.55443 348.40893 119.58263 348.54688 118.70312 C 348.73079 117.77729 348.96047 117.15217 349.23633 116.82812 C 349.5122 116.41152 350.2479 116.06489 351.44336 115.78711 C 352.63883 115.46308 353.92532 115.20859 355.30469 115.02344 C 356.73003 114.79198 358.0652 114.6297 359.30664 114.53711 C 360.59404 114.44452 361.49034 114.39844 361.99609 114.39844 z M 104.3125 118.41211 L 104.60938 118.71484 L 106.2832 120.42188 L 111.75391 120.42188 L 113.72461 118.41211 L 104.3125 118.41211 z M 113.78711 118.46484 L 113.48242 118.77344 L 111.81055 120.48047 L 111.81055 125.03906 L 113.01953 126.25586 L 113.78711 125.45508 L 113.78711 118.46484 z M 104.25195 118.46875 L 104.25195 118.89844 L 104.25195 125.45703 L 105.04102 126.25391 L 106.24805 125.03906 L 106.24805 120.48047 L 104.25195 118.46875 z M 40.523438 122.11328 C 43.975491 122.20864 46.661004 126.42833 46.521484 131.53906 C 46.381964 136.64986 43.469418 140.71255 40.017578 140.61719 C 36.565845 140.52183 33.881964 136.30217 34.021484 131.19141 C 34.160898 126.08075 37.071704 122.01789 40.523438 122.11328 z M 154.77344 125.90039 A 2.8052801 2.8243431 0 0 0 151.96875 128.72461 A 2.8052801 2.8243431 0 0 0 154.77344 131.54883 A 2.8052801 2.8243431 0 0 0 157.57812 128.72461 A 2.8052801 2.8243431 0 0 0 154.77344 125.90039 z M 113.02148 126.36133 L 112.89258 126.49414 L 111.81055 127.58398 L 111.81055 132.14258 L 113.78711 134.1582 L 113.78711 127.18945 L 113.02148 126.36133 z M 105.03906 126.36719 L 104.91406 126.49609 L 104.25195 127.1875 L 104.25195 134.1543 L 106.24805 132.14453 L 106.24805 127.58398 L 105.03906 126.36719 z M 106.2832 132.20117 L 106.23047 132.25586 L 104.31055 134.21289 L 113.72656 134.21289 L 111.75391 132.20117 L 106.2832 132.20117 z M 166.34766 138.16406 C 166.21565 138.16086 166.08228 138.17188 165.94727 138.19727 L 151.49414 140.93945 C 150.41423 141.14432 149.70866 142.1842 149.91211 143.27148 L 150.35352 145.63086 C 150.55699 146.71814 151.59002 147.42943 152.66992 147.22461 L 167.12305 144.48242 C 168.20299 144.27759 168.90856 143.23764 168.70508 142.15039 L 168.26367 139.79102 C 168.08566 138.83967 167.27169 138.17767 166.34766 138.16406 z M 18.855469 140.23438 C 20.613229 155.33912 26.673972 169.90904 36.128906 181.76953 C 34.136053 183.22967 32.642275 185.27567 32.171875 187.77539 C 31.521208 191.23398 33.01471 194.56916 35.464844 197.03125 C 37.914977 199.49328 41.361096 201.26677 45.347656 202.02734 C 49.33443 202.78739 53.186501 202.40264 56.361328 201.01367 C 56.721115 200.85659 57.084161 200.69534 57.427734 200.50781 C 60.990935 202.68946 64.73761 204.59268 68.591797 206.19531 C 68.461984 205.61724 68.406259 205.06138 68.513672 204.49023 C 69.282525 200.40478 76.161635 198.25499 83.857422 199.72266 C 91.552782 201.19028 97.17109 205.72506 96.402344 209.81055 C 96.234877 210.7005 95.763572 211.49285 95.072266 212.17969 C 105.28773 212.66226 115.58907 211.18863 125.26172 207.8418 C 110.35308 220.60618 89.612334 226.16409 70.375 222.54492 C 53.396226 219.30663 37.870299 209.0334 28.138672 194.65625 C 18.407258 180.27899 14.588794 161.97319 17.804688 144.87891 C 18.099514 143.31796 18.450562 141.76986 18.855469 140.23438 z M 134.43164 143.81055 L 134.13086 144.11523 L 131.7793 146.48242 L 131.7793 152.80273 L 133.39648 154.43164 L 134.43164 153.38867 L 134.43164 143.81055 z M 160.75195 153.5332 A 2.8052801 2.8243431 0 0 0 157.94727 156.35742 A 2.8052801 2.8243431 0 0 0 160.75195 159.18164 A 2.8052801 2.8243431 0 0 0 163.55859 156.35742 A 2.8052801 2.8243431 0 0 0 160.75195 153.5332 z M 92.748047 154.61719 L 93.044922 154.92188 L 95.689453 157.61914 L 104.34961 157.61914 L 107.28906 154.61719 L 92.748047 154.61719 z M 133.40039 154.78906 L 133.27148 154.91602 L 131.7793 156.41797 L 131.7793 162.73828 L 134.43164 165.41016 L 134.43164 155.86523 L 133.40039 154.78906 z M 107.53516 154.85547 L 107.23047 155.16406 L 104.58789 157.85938 L 104.58789 165.06055 L 106.41406 166.89844 L 107.53516 165.72852 L 107.53516 154.85547 z M 92.503906 154.85938 L 92.503906 155.28906 L 92.503906 165.73047 L 93.662109 166.89648 L 95.484375 165.06055 L 95.484375 157.85938 L 92.503906 154.85938 z M 212.0957 158.41211 C 210.86146 158.41211 209.0951 158.46779 206.79492 158.58008 C 204.49475 158.6923 202.08123 158.88935 199.55664 159.16992 C 197.08815 159.39438 194.76023 159.73076 192.57227 160.17969 C 190.38428 160.62862 188.78521 161.16202 187.77539 161.7793 C 187.10216 162.17211 186.5685 162.90058 186.17578 163.9668 C 185.78307 165.03302 185.44652 166.18341 185.16602 167.41797 C 184.9416 168.65253 184.77431 169.85867 184.66211 171.03711 C 184.606 172.21556 184.57812 173.11514 184.57812 173.73242 C 184.57812 176.20153 184.74543 178.69742 185.08203 181.22266 L 198.12695 179.45508 C 198.07085 178.95002 198.01314 178.4445 197.95703 177.93945 L 197.95703 176.50977 C 197.95703 174.99462 198.12627 173.84423 198.46289 173.05859 C 198.85561 172.27297 199.86522 171.73957 201.49219 171.45898 C 202.50201 171.29064 203.56743 171.20703 204.68945 171.20703 C 205.8676 171.15092 207.01859 171.12305 208.14062 171.12305 C 210.77743 171.12305 212.68515 171.62662 213.86328 172.63672 C 215.09753 173.59069 215.71484 175.583 215.71484 178.61328 C 215.71484 179.90396 215.37832 181.0265 214.70508 181.98047 C 214.08796 182.87832 213.35717 183.80383 212.51562 184.75781 C 210.88868 186.55354 209.03866 188.20947 206.96289 189.72461 C 204.88711 191.23976 202.7265 192.64293 200.48242 193.93359 C 198.23835 195.22427 195.93832 196.40254 193.58203 197.46875 C 191.22576 198.47885 188.92572 199.40436 186.68164 200.24609 C 187.01825 204.56705 187.3548 208.86016 187.69141 213.125 C 188.08412 217.33373 188.42067 221.57111 188.70117 225.83594 L 232.71289 224.23633 C 232.88119 220.86935 232.99271 217.50174 233.04883 214.13477 C 233.10493 210.76777 233.19054 207.40214 233.30273 204.03516 C 222.41896 204.5402 211.56203 204.87658 200.73438 205.04492 C 202.64184 204.03483 204.52169 203.02377 206.37305 202.01367 C 208.28052 200.94745 210.16036 199.88261 212.01172 198.81641 C 212.96545 198.19913 213.9472 197.60999 214.95703 197.04883 C 216.02296 196.43155 217.03259 195.78473 217.98633 195.11133 C 218.60344 194.66239 219.47367 194.01752 220.5957 193.17578 C 221.71774 192.27791 222.86679 191.35241 224.04492 190.39844 C 225.22307 189.38834 226.29041 188.40517 227.24414 187.45117 C 228.25399 186.44108 228.92706 185.62899 229.26367 185.01172 C 229.48808 184.50667 229.68326 183.85985 229.85156 183.07422 C 230.01986 182.2886 230.13335 181.44668 230.18945 180.54883 C 230.24556 179.65096 230.27344 178.7812 230.27344 177.93945 C 230.32954 177.09771 230.35742 176.42497 230.35742 175.91992 C 230.35742 174.62924 230.32954 173.31165 230.27344 171.96484 C 230.21733 170.61806 230.04808 169.2985 229.76758 168.00781 C 229.20656 165.65093 228.36618 163.82779 227.24414 162.53711 C 226.1221 161.19031 224.77399 160.23499 223.20312 159.67383 C 221.68838 159.05655 219.97779 158.6923 218.07031 158.58008 C 216.21895 158.46783 214.22758 158.41211 212.0957 158.41211 z M 270.33008 160.01172 C 269.43245 160.01172 268.25358 160.0674 266.79492 160.17969 C 265.33628 160.29192 263.7372 160.48893 261.99805 160.76953 C 260.25889 160.99399 258.46464 161.30249 256.61328 161.69531 C 254.81801 162.03201 253.10547 162.45198 251.47852 162.95703 C 249.85156 163.46207 248.39385 164.05122 247.10352 164.72461 C 245.81317 165.3419 244.85931 166.04445 244.24219 166.83008 C 243.62506 167.55959 243.11927 168.90507 242.72656 170.86914 C 242.33385 172.7771 241.9973 174.82513 241.7168 177.01367 C 241.49237 179.20222 241.3251 181.33581 241.21289 183.41211 C 241.10069 185.4323 241.04492 186.91907 241.04492 187.87305 C 241.04492 189.55656 241.10071 191.35181 241.21289 193.25977 C 241.3251 195.16772 241.46451 197.10427 241.63281 199.06836 C 241.85722 201.03242 242.08224 202.969 242.30664 204.87695 C 242.58715 206.72879 242.86793 208.44045 243.14844 210.01172 C 243.42895 211.41463 243.76549 212.87354 244.1582 214.38867 C 244.55092 215.90382 245.11246 217.24929 245.8418 218.42773 C 246.62722 219.71841 247.52338 220.92454 248.5332 222.04688 C 249.59914 223.11308 250.75012 224.04055 251.98438 224.82617 C 252.37709 225.10676 253.0223 225.30183 253.91992 225.41406 C 254.81756 225.5263 255.77142 225.61186 256.78125 225.66797 C 257.79108 225.7802 258.74496 225.83594 259.64258 225.83594 L 261.83008 225.83594 C 262.8399 225.83594 264.1582 225.80806 265.78516 225.75195 C 267.41211 225.75195 269.06694 225.69627 270.75 225.58398 C 272.48916 225.52788 274.144 225.41445 275.71484 225.24609 C 277.34179 225.07775 278.60433 224.85284 279.50195 224.57227 C 280.51179 224.29168 281.52143 223.81596 282.53125 223.14258 C 283.59719 222.46918 284.63471 221.71088 285.64453 220.86914 C 286.65438 219.97127 287.58034 219.07365 288.42188 218.17578 C 289.3195 217.22181 290.10607 216.35203 290.7793 215.56641 C 291.2842 214.89301 291.7044 213.79835 292.04102 212.2832 C 292.43373 210.76807 292.74239 209.02854 292.9668 207.06445 C 293.1912 205.04426 293.3585 202.9405 293.4707 200.75195 C 293.5829 198.5073 293.66849 196.34584 293.72461 194.26953 C 293.78072 192.1371 293.80859 190.23036 293.80859 188.54688 L 293.80859 184.42188 L 293.80859 181.64453 C 293.80859 180.24162 293.78061 178.78271 293.72461 177.26758 C 293.6685 175.75242 293.61275 174.34927 293.55664 173.05859 C 293.50053 171.7118 293.38706 170.8699 293.21875 170.5332 C 292.93825 169.85981 292.40652 169.07364 291.62109 168.17578 C 290.89177 167.27791 290.04945 166.40814 289.0957 165.56641 C 288.19808 164.72466 287.2442 163.96636 286.23438 163.29297 C 285.22453 162.56345 284.35433 162.03201 283.625 161.69531 C 282.72738 161.30249 281.71775 160.99399 280.5957 160.76953 C 279.47367 160.54506 278.29675 160.37592 277.0625 160.26367 C 275.88437 160.15145 274.70548 160.0957 273.52734 160.0957 C 272.3492 160.0396 271.28381 160.01172 270.33008 160.01172 z M 366.76953 160.26367 C 364.69376 160.26367 362.64467 160.29155 360.625 160.34766 C 358.60533 160.34766 356.5582 160.37553 354.48242 160.43164 C 353.19209 160.48775 351.92955 160.57135 350.69531 160.68359 C 349.51717 160.79582 348.36813 161.04858 347.24609 161.44141 C 346.18015 161.7781 345.14069 162.28362 344.13086 162.95703 C 343.17712 163.63042 342.28098 164.52807 341.43945 165.65039 C 341.10285 166.09932 340.84995 166.82975 340.68164 167.83984 C 340.56943 168.84995 340.45595 169.9446 340.34375 171.12305 C 340.28764 172.30149 340.25977 173.45189 340.25977 174.57422 L 340.25977 177.09766 C 340.25977 177.93941 340.31747 178.9226 340.42969 180.04492 C 340.54189 181.11113 340.7092 182.23367 340.93359 183.41211 C 341.15801 184.53443 341.38302 185.6291 341.60742 186.69531 C 341.88793 187.76152 342.16871 188.68702 342.44922 189.47266 C 342.61752 189.97769 342.98194 190.45342 343.54297 190.90234 C 344.10398 191.35127 344.72132 191.74534 345.39453 192.08203 C 346.06776 192.41875 346.74085 192.72724 347.41406 193.00781 C 348.08729 193.23227 348.64689 193.39947 349.0957 193.51172 C 348.75911 193.62394 348.28315 193.79311 347.66602 194.01758 C 347.10499 194.24204 346.48768 194.49479 345.81445 194.77539 C 345.14124 194.99985 344.49602 195.25264 343.87891 195.5332 C 343.31788 195.75767 342.89769 195.98257 342.61719 196.20703 C 341.94396 196.82432 341.41029 197.6364 341.01758 198.64648 C 340.62486 199.65659 340.31619 200.72338 340.0918 201.8457 C 339.9235 202.96804 339.81198 204.09057 339.75586 205.21289 C 339.69975 206.33522 339.67188 207.31645 339.67188 208.1582 C 339.67188 209.1683 339.69975 210.12363 339.75586 211.02148 C 339.81197 211.91935 339.97925 212.87271 340.25977 213.88281 C 340.42806 214.66844 340.70885 215.7631 341.10156 217.16602 C 341.55038 218.56892 342.08406 219.97209 342.70117 221.375 C 343.31829 222.77791 344.01926 224.01192 344.80469 225.07812 C 345.64622 226.14435 346.54431 226.70561 347.49805 226.76172 C 348.67618 226.87394 350.05024 226.92969 351.62109 226.92969 L 356.08203 226.92969 C 357.70898 226.92969 359.36381 226.90181 361.04688 226.8457 L 370.97656 226.8457 L 374.67969 226.8457 C 375.97003 226.8457 377.11906 226.81783 378.12891 226.76172 C 379.19483 226.76172 380.06507 226.73384 380.73828 226.67773 C 381.4676 226.62163 381.94356 226.56586 382.16797 226.50977 C 382.6729 226.3414 383.23445 226.03291 383.85156 225.58398 C 384.46869 225.13506 385.08602 224.62952 385.70312 224.06836 C 386.32027 223.45108 386.85392 222.83407 387.30273 222.2168 C 387.80765 221.59951 388.19996 221.06612 388.48047 220.61719 C 388.92928 219.83156 389.18217 218.8205 389.23828 217.58594 C 389.35048 216.35137 389.40625 215.28653 389.40625 214.38867 C 389.40625 213.43469 389.37837 212.34003 389.32227 211.10547 C 389.26616 209.8709 389.18057 208.6369 389.06836 207.40234 C 388.95616 206.11168 388.81674 204.87571 388.64844 203.69727 C 388.48012 202.51881 388.28301 201.45398 388.05859 200.5 C 387.8903 199.82661 387.49798 199.15192 386.88086 198.47852 C 386.26373 197.80512 385.56277 197.18812 384.77734 196.62695 C 383.99191 196.00967 383.20729 195.47628 382.42188 195.02734 C 381.63645 194.57842 380.96336 194.21418 380.40234 193.93359 C 380.57065 193.82138 381.01871 193.51287 381.74805 193.00781 C 382.53348 192.44665 383.34597 191.85751 384.1875 191.24023 C 385.08513 190.62295 385.8717 190.03382 386.54492 189.47266 C 387.27423 188.91149 387.69443 188.51744 387.80664 188.29297 C 387.91884 188.01239 388.0025 187.59241 388.05859 187.03125 C 388.1147 186.41397 388.14258 185.79697 388.14258 185.17969 C 388.19868 184.5063 388.22852 183.86143 388.22852 183.24414 L 388.22852 181.8125 L 388.22852 177.77148 C 388.22852 176.36859 388.11504 174.99328 387.89062 173.64648 C 387.77842 172.74862 387.38611 171.62804 386.71289 170.28125 C 386.09577 168.87835 385.31115 167.50303 384.35742 166.15625 C 383.45979 164.80946 382.47805 163.60332 381.41211 162.53711 C 380.40227 161.4709 379.42052 160.82408 378.4668 160.59961 C 377.96187 160.48735 377.1753 160.40376 376.10938 160.34766 C 375.04342 160.29155 373.92227 160.26367 372.74414 160.26367 L 369.29297 160.26367 L 366.76953 160.26367 z M 324.01953 160.59961 L 305.92578 161.10547 C 305.47696 163.85516 305.08465 166.57594 304.74805 169.26953 C 304.41144 171.96312 303.79412 174.65799 302.89648 177.35156 L 309.62891 178.02539 L 307.35742 222.97461 C 310.72353 223.03072 314.06109 223.14219 317.37109 223.31055 C 320.73722 223.42277 324.13052 223.61981 327.55273 223.90039 C 326.93561 213.29441 326.34813 202.74376 325.78711 192.25 C 325.28219 181.75624 324.69276 171.20559 324.01953 160.59961 z M 159.66602 167.21875 A 2.8052801 2.8243431 0 0 0 156.86133 170.04297 A 2.8052801 2.8243431 0 0 0 159.66602 172.86719 A 2.8052801 2.8243431 0 0 0 162.47266 170.04297 A 2.8052801 2.8243431 0 0 0 159.66602 167.21875 z M 106.41602 167.375 L 106.28711 167.50586 L 104.58789 169.21484 L 104.58789 176.41602 L 107.53516 179.41992 L 107.53516 168.58398 L 106.41602 167.375 z M 93.660156 167.37891 L 93.535156 167.50977 L 92.503906 168.58398 L 92.503906 179.41797 L 95.484375 176.41797 L 95.484375 169.2168 L 93.660156 167.37891 z M 366.26367 167.58594 C 366.48809 167.58594 366.82462 167.61577 367.27344 167.67188 C 367.77834 167.67188 368.25627 167.69975 368.70508 167.75586 C 369.21001 167.75586 369.68594 167.81154 370.13477 167.92383 C 370.58358 167.97993 370.89224 168.09141 371.06055 168.25977 C 371.45326 168.59645 371.76191 169.35476 371.98633 170.5332 C 372.26683 171.71165 372.49185 173.0014 372.66016 174.4043 C 372.82844 175.75109 372.93999 177.07065 372.99609 178.36133 C 373.0522 179.65201 373.08008 180.54965 373.08008 181.05469 C 373.08008 181.33527 373.0522 181.75523 372.99609 182.31641 C 372.99609 182.87756 372.96822 183.46866 372.91211 184.08594 C 372.856 184.6471 372.77236 185.2064 372.66016 185.76758 C 372.54795 186.27262 372.40659 186.63882 372.23828 186.86328 C 371.73337 187.42443 370.89299 187.84442 369.71484 188.125 C 368.59281 188.40558 367.38605 188.60262 366.0957 188.71484 C 364.80537 188.77095 363.51496 188.79883 362.22461 188.79883 C 360.99037 188.74272 359.98073 188.71484 359.19531 188.71484 L 357.76367 188.71484 C 357.20266 188.71484 356.61517 188.68697 355.99805 188.63086 C 355.38093 188.51862 354.79149 188.4052 354.23047 188.29297 C 353.72556 188.12461 353.33326 187.90168 353.05273 187.62109 C 352.77223 187.34052 352.51934 186.72156 352.29492 185.76758 C 352.12661 184.75749 351.98525 183.69265 351.87305 182.57031 C 351.76084 181.44799 351.6772 180.35332 351.62109 179.28711 C 351.56499 178.2209 351.53711 177.4626 351.53711 177.01367 C 351.53711 176.62086 351.5929 176.03174 351.70508 175.24609 C 351.81727 174.40436 351.95865 173.56245 352.12695 172.7207 C 352.35137 171.87896 352.57441 171.12261 352.79883 170.44922 C 353.07934 169.71969 353.38799 169.21419 353.72461 168.93359 C 354.00511 168.70912 354.73397 168.5121 355.91211 168.34375 C 357.09024 168.1754 358.38065 168.03606 359.7832 167.92383 C 361.18576 167.81159 362.50403 167.72798 363.73828 167.67188 C 365.02863 167.61577 365.87097 167.58594 366.26367 167.58594 z M 270.41406 169.10156 C 271.14339 169.10156 271.95588 169.18721 272.85352 169.35547 C 273.75115 169.4677 274.42423 169.83194 274.87305 170.44922 C 275.15356 170.84202 275.40644 171.62623 275.63086 172.80469 C 275.85525 173.927 276.0524 175.27446 276.2207 176.8457 C 276.44512 178.41697 276.6124 180.10075 276.72461 181.89648 C 276.83681 183.6361 276.92241 185.34776 276.97852 187.03125 C 277.09071 188.65862 277.17436 190.14538 277.23047 191.49219 C 277.28658 192.78285 277.31445 193.73624 277.31445 194.35352 C 277.31445 195.02691 277.28658 196.01011 277.23047 197.30078 C 277.17436 198.53534 277.09071 199.91065 276.97852 201.42578 C 276.8663 202.94092 276.69706 204.5113 276.47266 206.13867 C 276.30435 207.70995 276.05145 209.19671 275.71484 210.59961 C 275.43433 212.00252 275.06992 213.20865 274.62109 214.21875 C 274.17228 215.22883 273.66846 215.87566 273.10742 216.15625 C 272.54641 216.43684 271.8156 216.65978 270.91797 216.82812 C 270.07644 216.99648 269.15046 217.13778 268.14062 217.25 C 267.1869 217.36225 266.23498 217.44585 265.28125 217.50195 C 264.38361 217.55806 263.62493 217.58594 263.00781 217.58594 L 261.91406 217.58594 C 261.46525 217.58594 260.98929 217.55806 260.48438 217.50195 C 259.97946 217.44585 259.50156 217.36223 259.05273 217.25 C 258.66003 217.13778 258.35138 216.96861 258.12695 216.74414 C 257.84644 216.46356 257.59355 215.8187 257.36914 214.80859 C 257.20083 213.74239 257.03353 212.48051 256.86523 211.02148 C 256.69694 209.50634 256.52767 207.90614 256.35938 206.22266 C 256.24716 204.48305 256.13564 202.82711 256.02344 201.25586 C 255.96733 199.62847 255.91158 198.19744 255.85547 196.96289 C 255.79936 195.67221 255.77148 194.71884 255.77148 194.10156 L 255.77148 189.21875 C 255.82759 187.03021 255.93911 184.75923 256.10742 182.40234 C 256.27573 180.04546 256.52863 177.88399 256.86523 175.91992 C 257.25796 173.89973 257.79162 172.55229 258.46484 171.87891 C 258.91364 171.42997 259.67039 171.03788 260.73633 170.70117 C 261.80226 170.36448 262.95131 170.08383 264.18555 169.85938 C 265.41979 169.5788 266.59867 169.38177 267.7207 169.26953 C 268.89885 169.1573 269.79695 169.10156 270.41406 169.10156 z M 95.689453 176.6582 L 95.636719 176.71094 L 92.748047 179.66016 L 107.28906 179.66016 L 104.34961 176.6582 L 95.689453 176.6582 z M 155.23242 180.94531 A 2.8052801 2.8243431 0 0 0 152.42773 183.76953 A 2.8052801 2.8243431 0 0 0 155.23242 186.59375 A 2.8052801 2.8243431 0 0 0 158.03711 183.76953 A 2.8052801 2.8243431 0 0 0 155.23242 180.94531 z M 48.107422 182.16602 C 49.132062 182.14458 50.19929 182.2324 51.285156 182.43945 C 57.076197 183.54389 61.171595 187.64272 60.425781 191.60742 C 59.679648 195.57224 54.380884 197.88186 48.589844 196.77734 C 42.798697 195.67287 38.703192 191.57022 39.449219 187.60547 C 40.055405 184.38416 43.667528 182.25847 48.107422 182.16602 z M 367.27344 198.14258 C 367.83445 198.14258 368.59119 198.17056 369.54492 198.22656 C 370.55476 198.22656 371.25768 198.36592 371.65039 198.64648 C 372.15531 198.9832 372.54763 199.46084 372.82812 200.07812 C 373.16475 200.63928 373.41762 201.25629 373.58594 201.92969 C 373.75424 202.60308 373.86577 203.30564 373.92188 204.03516 C 373.97798 204.70854 374.00586 205.32555 374.00586 205.88672 C 374.00586 206.33565 373.95007 207.11985 373.83789 208.24219 C 373.72569 209.36451 373.55644 210.51492 373.33203 211.69336 C 373.10763 212.8718 372.82685 213.96646 372.49023 214.97656 C 372.15363 215.98665 371.76132 216.60367 371.3125 216.82812 C 371.08808 216.94036 370.33135 217.05378 369.04102 217.16602 C 367.75067 217.27826 366.34874 217.36186 364.83398 217.41797 C 363.31923 217.47408 361.85958 217.52982 360.45703 217.58594 L 357.76367 217.58594 L 357.0918 217.58594 L 356.16602 217.58594 L 355.24023 217.58594 C 354.95972 217.52983 354.76259 217.47409 354.65039 217.41797 C 354.14547 217.19351 353.69739 216.66011 353.30469 215.81836 C 352.91197 214.9205 352.57543 213.93927 352.29492 212.87305 C 352.0144 211.75072 351.7894 210.68392 351.62109 209.67383 C 351.4528 208.60762 351.36914 207.82146 351.36914 207.31641 C 351.36914 206.9236 351.42493 206.36233 351.53711 205.63281 C 351.64931 204.9033 351.78873 204.17482 351.95703 203.44531 C 352.12534 202.65968 352.32247 201.95907 352.54688 201.3418 C 352.82739 200.66839 353.13604 200.19074 353.47266 199.91016 C 353.86537 199.57346 354.70771 199.29282 355.99805 199.06836 C 357.28839 198.84389 358.66245 198.67473 360.12109 198.5625 C 361.63586 198.39415 363.06567 198.28267 364.41211 198.22656 C 365.75856 198.17046 366.7124 198.14258 367.27344 198.14258 z M 17.185547 250.14844 L 17.185547 252.11133 L 392.51367 252.11133 L 392.51367 250.14844 L 17.185547 250.14844 z M 182.41211 269.76562 C 182.03814 269.76562 181.71535 269.90184 181.44336 270.17383 C 181.18271 270.43448 181.05273 270.75298 181.05273 271.12695 L 181.05273 280.81641 L 180.98438 280.74805 C 179.1258 278.88949 176.88113 277.96094 174.25195 277.96094 C 171.62278 277.96094 169.38004 278.88949 167.52148 280.74805 C 165.66292 282.6066 164.73242 284.84933 164.73242 287.47852 C 164.73242 290.10769 165.66292 292.35238 167.52148 294.21094 C 169.38004 296.0695 171.62278 296.99805 174.25195 296.99805 C 176.88113 296.99805 179.1258 296.0695 180.98438 294.21094 C 182.84292 292.35238 183.77148 290.10769 183.77148 287.47852 L 183.77148 271.12695 C 183.77148 270.75298 183.63527 270.43448 183.36328 270.17383 C 183.10263 269.90184 182.78607 269.76562 182.41211 269.76562 z M 280.32617 269.76562 C 279.9522 269.76562 279.62941 269.90184 279.35742 270.17383 C 279.09677 270.43448 278.9668 270.75298 278.9668 271.12695 L 278.9668 287.47852 C 278.9668 290.10768 279.89535 292.35238 281.75391 294.21094 C 283.61247 296.0695 285.85714 296.99805 288.48633 296.99805 C 291.11551 296.99805 293.35824 296.0695 295.2168 294.21094 C 297.07536 292.35238 298.00391 290.10768 298.00391 287.47852 C 298.00391 284.84933 297.07536 282.6066 295.2168 280.74805 C 293.35824 278.88949 291.11551 277.96094 288.48633 277.96094 C 285.85714 277.96094 283.61247 278.88949 281.75391 280.74805 L 281.68555 280.81641 L 281.68555 271.12695 C 281.68555 270.75297 281.54934 270.43448 281.27734 270.17383 C 281.0167 269.90184 280.70016 269.76562 280.32617 269.76562 z M 84.498047 269.80078 C 84.124074 269.80078 83.805615 269.93076 83.544922 270.19141 C 83.431855 270.30473 83.341704 270.42417 83.273438 270.54883 L 74.927734 284.38477 C 74.055201 285.68801 73.619141 287.17396 73.619141 288.83984 C 73.619141 291.09505 74.411487 293.02124 75.998047 294.61914 C 77.595914 296.20571 79.522197 296.99805 81.777344 296.99805 C 84.032491 296.99805 85.954456 296.20571 87.541016 294.61914 C 89.138989 293.02124 89.9375 291.09505 89.9375 288.83984 C 89.9375 286.58465 89.138989 284.66275 87.541016 283.07617 C 85.954456 281.47827 84.032491 280.67969 81.777344 280.67969 C 81.256064 280.67969 80.752985 280.72576 80.265625 280.81641 L 85.669922 271.85742 C 85.794615 271.65342 85.857422 271.42081 85.857422 271.16016 C 85.857422 270.78618 85.721219 270.46965 85.449219 270.20898 C 85.188632 269.93702 84.87202 269.80078 84.498047 269.80078 z M 109.65625 269.80078 C 107.96772 269.80078 106.52344 270.4003 105.32227 271.60156 C 104.13229 272.79149 103.53711 274.23136 103.53711 275.91992 C 103.53711 277.60849 104.13229 279.05264 105.32227 280.25391 L 107.19141 282.14258 L 105.38867 283.55273 C 103.24681 285.2413 102.17578 287.11714 102.17578 289.17969 C 102.17578 291.46888 102.90717 293.34473 104.36914 294.80664 C 105.83101 296.26856 107.59374 296.99805 109.65625 296.99805 C 111.71876 296.99805 113.4814 296.26856 114.94336 294.80664 L 117.30469 292.29102 L 121.62305 296.625 C 121.89503 296.87432 122.21354 296.99805 122.57617 296.99805 C 122.95016 296.99805 123.26669 296.86807 123.52734 296.60742 C 123.79932 296.33544 123.93555 296.01265 123.93555 295.63867 C 123.93555 295.27603 123.80986 294.97004 123.56055 294.7207 L 119.17578 290.28516 L 122.23438 287.03711 C 122.46102 286.77646 122.57617 286.47045 122.57617 286.11914 C 122.57617 285.74516 122.43995 285.42861 122.16797 285.16797 C 121.90732 284.89597 121.58882 284.75977 121.21484 284.75977 C 120.84087 284.75977 120.52432 284.88974 120.26367 285.15039 L 117.25391 288.36328 L 111.23633 282.32812 L 113.29297 280.76562 C 114.94749 279.33772 115.77539 277.72182 115.77539 275.91992 C 115.77539 274.23136 115.17584 272.79149 113.97461 271.60156 C 112.78464 270.4003 111.34478 269.80078 109.65625 269.80078 z M 137.53516 269.80078 C 137.16117 269.80078 136.83838 269.93702 136.56641 270.20898 C 136.30576 270.46965 136.17383 270.78618 136.17383 271.16016 C 136.17383 271.53414 136.30576 271.85693 136.56641 272.12891 C 136.83838 272.38956 137.16117 272.51953 137.53516 272.51953 L 148.83789 272.51953 L 136.44727 294.82227 C 136.26593 295.09424 136.17383 295.36668 136.17383 295.63867 C 136.17383 296.01265 136.30576 296.33544 136.56641 296.60742 C 136.83838 296.86807 137.16117 296.99805 137.53516 296.99805 C 137.90912 296.99805 138.23192 296.86378 138.50391 296.5918 C 138.59457 296.50113 138.67848 296.3817 138.75781 296.23438 L 152.28906 271.89062 C 152.42506 271.67532 152.49414 271.43215 152.49414 271.16016 C 152.49414 270.78618 152.35792 270.46965 152.08594 270.20898 C 151.82529 269.93702 151.5068 269.80078 151.13281 269.80078 L 137.53516 269.80078 z M 198.73047 269.80078 C 198.35648 269.80078 198.0337 269.93076 197.76172 270.19141 L 193.63086 274.32227 C 193.40421 274.58292 193.29102 274.88893 193.29102 275.24023 C 193.29102 275.61422 193.42099 275.93701 193.68164 276.20898 C 193.95363 276.46965 194.27641 276.59961 194.65039 276.59961 C 195.01305 276.59961 195.32529 276.48017 195.58594 276.24219 L 199.7168 272.11328 C 199.96611 271.8413 200.08984 271.5228 200.08984 271.16016 C 200.08984 270.78618 199.95557 270.46965 199.68359 270.20898 C 199.42294 269.93702 199.10444 269.80078 198.73047 269.80078 z M 109.65625 272.51953 C 110.59684 272.51953 111.39545 272.85481 112.05273 273.52344 C 112.72143 274.18073 113.05664 274.97931 113.05664 275.91992 C 113.05664 276.97386 112.49497 277.94846 111.37305 278.84375 L 109.34961 280.44141 L 107.24219 278.31641 C 106.58491 277.6591 106.25586 276.86054 106.25586 275.91992 C 106.25586 274.97931 106.58491 274.18073 107.24219 273.52344 C 107.91077 272.85481 108.71566 272.51953 109.65625 272.51953 z M 196.01172 277.96094 C 193.38253 277.96094 191.13785 278.88949 189.2793 280.74805 C 187.42074 282.6066 186.49219 284.84933 186.49219 287.47852 C 186.49219 290.10768 187.42074 292.35238 189.2793 294.21094 C 191.13785 296.0695 193.38253 296.99805 196.01172 296.99805 C 198.39158 296.99805 200.4583 296.23305 202.21484 294.70312 C 202.47549 294.43116 202.60742 294.10836 202.60742 293.73438 C 202.60742 293.36039 202.4712 293.04385 202.19922 292.7832 C 201.93857 292.51122 201.62008 292.375 201.24609 292.375 C 200.92878 292.375 200.64582 292.47143 200.39648 292.66406 C 199.17257 293.74066 197.71161 294.2793 196.01172 294.2793 C 194.13049 294.2793 192.52709 293.61694 191.20117 292.29102 C 190.2039 291.29375 189.57939 290.14311 189.33008 288.83984 L 204.16992 288.83984 C 204.54391 288.83984 204.8624 288.70987 205.12305 288.44922 C 205.39503 288.17724 205.53125 287.85249 205.53125 287.47852 C 205.53125 284.84933 204.60074 282.6066 202.74219 280.74805 C 200.88363 278.88949 198.64089 277.96094 196.01172 277.96094 z M 217.76953 277.96094 C 215.14036 277.96094 212.89566 278.88949 211.03711 280.74805 C 209.17855 282.6066 208.25 284.84933 208.25 287.47852 C 208.25 290.10768 209.17855 292.35238 211.03711 294.21094 C 212.89566 296.0695 215.14036 296.99805 217.76953 296.99805 C 220.14939 296.99805 222.21804 296.23305 223.97461 294.70312 C 224.25793 294.40848 224.39844 294.07516 224.39844 293.70117 C 224.39844 293.32719 224.26417 293.01065 223.99219 292.75 C 223.73154 292.47801 223.41304 292.3418 223.03906 292.3418 C 222.72175 292.3418 222.44503 292.43204 222.20703 292.61328 C 220.9491 293.72388 219.46944 294.2793 217.76953 294.2793 C 215.88832 294.2793 214.2849 293.61694 212.95898 292.29102 C 211.63306 290.9651 210.9707 289.35973 210.9707 287.47852 C 210.9707 285.59728 211.63306 283.99389 212.95898 282.66797 C 214.2849 281.34205 215.88832 280.67969 217.76953 280.67969 C 219.46944 280.67969 220.95339 281.24135 222.22266 282.36328 C 222.47197 282.56727 222.7612 282.66797 223.08984 282.66797 C 223.46383 282.66797 223.78232 282.53799 224.04297 282.27734 C 224.31495 282.00537 224.45117 281.68257 224.45117 281.30859 C 224.45117 280.88929 224.29192 280.53722 223.97461 280.25391 C 222.21804 278.72399 220.14939 277.96094 217.76953 277.96094 z M 236.80859 277.96094 C 234.17942 277.96094 231.93473 278.88949 230.07617 280.74805 C 228.21762 282.6066 227.28906 284.84933 227.28906 287.47852 C 227.28906 290.10768 228.21762 292.35238 230.07617 294.21094 C 231.93473 296.0695 234.17942 296.99805 236.80859 296.99805 C 239.18846 296.99805 241.25712 296.23305 243.01367 294.70312 C 243.27432 294.43116 243.4043 294.10836 243.4043 293.73438 C 243.4043 293.36039 243.26808 293.04385 242.99609 292.7832 C 242.73544 292.51122 242.41891 292.375 242.04492 292.375 C 241.72761 292.375 241.44267 292.47143 241.19336 292.66406 C 239.96943 293.74066 238.5085 294.2793 236.80859 294.2793 C 234.92738 294.2793 233.32397 293.61694 231.99805 292.29102 C 231.00078 291.29375 230.37823 290.14311 230.12891 288.83984 L 244.96875 288.83984 C 245.34273 288.83984 245.65927 288.70987 245.91992 288.44922 C 246.1919 288.17724 246.32812 287.85249 246.32812 287.47852 C 246.32812 284.84933 245.39957 282.6066 243.54102 280.74805 C 241.68246 278.88949 239.43778 277.96094 236.80859 277.96094 z M 250.4082 277.96094 C 250.03424 277.96094 249.71144 278.0952 249.43945 278.36719 C 249.1788 278.62784 249.04688 278.94634 249.04688 279.32031 L 249.04688 295.63867 C 249.04686 296.01265 249.1788 296.33544 249.43945 296.60742 C 249.71144 296.86807 250.03424 296.99805 250.4082 296.99805 C 250.78219 296.99805 251.09871 296.86807 251.35938 296.60742 C 251.63135 296.33544 251.76758 296.01265 251.76758 295.63867 L 251.76758 285.43945 C 251.76758 284.12486 252.23283 283.0035 253.16211 282.07422 C 254.09138 281.14494 255.21276 280.67969 256.52734 280.67969 C 257.84194 280.67969 258.9633 281.14494 259.89258 282.07422 C 260.82186 283.0035 261.28711 284.12486 261.28711 285.43945 L 261.28711 295.63867 C 261.28711 296.01265 261.41708 296.33544 261.67773 296.60742 C 261.94972 296.86807 262.27252 296.99805 262.64648 296.99805 C 263.02047 296.99805 263.33896 296.86807 263.59961 296.60742 C 263.8716 296.33544 264.00781 296.01265 264.00781 295.63867 L 264.00781 285.43945 C 264.00781 284.12486 264.47112 283.0035 265.40039 282.07422 C 266.32967 281.14494 267.45299 280.67969 268.76758 280.67969 C 270.08217 280.67969 271.20353 281.14494 272.13281 282.07422 C 273.06209 283.0035 273.52539 284.12486 273.52539 285.43945 L 273.52539 295.63867 C 273.52539 296.01265 273.65731 296.33544 273.91797 296.60742 C 274.18995 296.86807 274.51273 296.99805 274.88672 296.99805 C 275.26068 296.99805 275.57723 296.86807 275.83789 296.60742 C 276.10987 296.33544 276.24609 296.01265 276.24609 295.63867 L 276.24609 285.43945 C 276.24609 283.37691 275.51464 281.61425 274.05273 280.15234 C 272.59082 278.69043 270.83012 277.96094 268.76758 277.96094 C 266.70504 277.96094 264.94239 278.69043 263.48047 280.15234 C 263.17448 280.45833 262.89582 280.7811 262.64648 281.12109 C 262.39717 280.7811 262.12045 280.45833 261.81445 280.15234 C 260.35254 278.69043 258.58989 277.96094 256.52734 277.96094 C 254.70279 277.96094 253.11616 278.53314 251.76758 279.67773 L 251.76758 279.32031 C 251.76758 278.94634 251.63135 278.62784 251.35938 278.36719 C 251.09871 278.0952 250.78219 277.96094 250.4082 277.96094 z M 302.08398 277.96094 C 301.71001 277.96094 301.38722 278.0952 301.11523 278.36719 C 300.85458 278.62784 300.72461 278.94634 300.72461 279.32031 L 300.72461 295.63867 C 300.72461 296.01265 300.85458 296.33544 301.11523 296.60742 C 301.38722 296.86807 301.71001 296.99805 302.08398 296.99805 C 302.45796 296.99805 302.77646 296.86807 303.03711 296.60742 C 303.3091 296.33544 303.44531 296.01265 303.44531 295.63867 L 303.44531 287.47852 C 303.44531 285.59728 304.10767 283.99389 305.43359 282.66797 C 306.75951 281.34205 308.36291 280.67969 310.24414 280.67969 C 311.2074 280.67969 312.09187 280.84947 312.89648 281.18945 C 313.07781 281.28012 313.27492 281.32617 313.49023 281.32617 C 313.86422 281.32617 314.18271 281.1962 314.44336 280.93555 C 314.71535 280.66356 314.85156 280.34077 314.85156 279.9668 C 314.85156 279.59281 314.71965 279.26808 314.45898 278.99609 C 314.28899 278.83744 314.10242 278.71997 313.89844 278.64062 C 312.78782 278.18733 311.57006 277.96094 310.24414 277.96094 C 307.61496 277.96094 305.34921 278.91251 303.44531 280.81641 L 303.44531 279.32031 C 303.44531 278.94634 303.3091 278.62784 303.03711 278.36719 C 302.77646 278.0952 302.45796 277.96094 302.08398 277.96094 z M 326.5625 277.96094 C 323.93332 277.96094 321.69058 278.88949 319.83203 280.74805 C 317.97348 282.6066 317.04297 284.84933 317.04297 287.47852 C 317.04297 290.10768 317.97348 292.35238 319.83203 294.21094 C 321.69058 296.0695 323.93332 296.99805 326.5625 296.99805 C 328.94236 296.99805 331.01101 296.23305 332.76758 294.70312 C 333.02823 294.43116 333.1582 294.10836 333.1582 293.73438 C 333.1582 293.36039 333.02199 293.04385 332.75 292.7832 C 332.48935 292.51122 332.1728 292.375 331.79883 292.375 C 331.48152 292.375 331.19853 292.47143 330.94922 292.66406 C 329.72528 293.74066 328.26239 294.2793 326.5625 294.2793 C 324.68127 294.2793 323.07788 293.61694 321.75195 292.29102 C 320.75468 291.29375 320.13214 290.14311 319.88281 288.83984 L 334.72266 288.83984 C 335.09663 288.83984 335.41318 288.70987 335.67383 288.44922 C 335.94581 288.17724 336.08203 287.85249 336.08203 287.47852 C 336.08203 284.84933 335.15347 282.6066 333.29492 280.74805 C 331.43636 278.88949 329.19167 277.96094 326.5625 277.96094 z M 174.25195 280.67969 C 176.13319 280.67969 177.73658 281.34205 179.0625 282.66797 C 180.38842 283.99389 181.05273 285.59728 181.05273 287.47852 C 181.05273 289.35973 180.38842 290.9651 179.0625 292.29102 C 177.73658 293.61694 176.13319 294.2793 174.25195 294.2793 C 172.37074 294.2793 170.76732 293.61694 169.44141 292.29102 C 168.11548 290.9651 167.45312 289.35973 167.45312 287.47852 C 167.45312 285.59728 168.11548 283.99389 169.44141 282.66797 C 170.76732 281.34205 172.37074 280.67969 174.25195 280.67969 z M 196.01172 280.67969 C 197.89293 280.67969 199.49633 281.34205 200.82227 282.66797 C 201.81954 283.66524 202.44207 284.81588 202.69141 286.11914 L 189.33008 286.11914 C 189.57939 284.81588 190.2039 283.66524 191.20117 282.66797 C 192.52709 281.34205 194.13049 280.67969 196.01172 280.67969 z M 236.80859 280.67969 C 238.68981 280.67969 240.29322 281.34205 241.61914 282.66797 C 242.61642 283.66524 243.23897 284.81588 243.48828 286.11914 L 230.12891 286.11914 C 230.37823 284.81588 231.00078 283.66524 231.99805 282.66797 C 233.32397 281.34205 234.92738 280.67969 236.80859 280.67969 z M 288.48633 280.67969 C 290.36754 280.67969 291.97095 281.34205 293.29688 282.66797 C 294.6228 283.99389 295.28516 285.59728 295.28516 287.47852 C 295.28516 289.35973 294.6228 290.9651 293.29688 292.29102 C 291.97095 293.61694 290.36754 294.2793 288.48633 294.2793 C 286.6051 294.2793 284.99975 293.61694 283.67383 292.29102 C 282.34791 290.9651 281.68555 289.35973 281.68555 287.47852 C 281.68555 285.59728 282.34791 283.99389 283.67383 282.66797 C 284.99975 281.34205 286.6051 280.67969 288.48633 280.67969 z M 326.5625 280.67969 C 328.44372 280.67969 330.04712 281.34205 331.37305 282.66797 C 332.37032 283.66524 332.99484 284.81588 333.24414 286.11914 L 319.88281 286.11914 C 320.13214 284.81588 320.75468 283.66524 321.75195 282.66797 C 323.07788 281.34205 324.68127 280.67969 326.5625 280.67969 z M 81.777344 283.40039 C 83.284544 283.40039 84.565274 283.93277 85.619141 284.99805 C 86.684421 286.05197 87.216797 287.33261 87.216797 288.83984 C 87.216797 290.3471 86.684421 291.632 85.619141 292.69727 C 84.565274 293.7512 83.284544 294.2793 81.777344 294.2793 C 80.270144 294.2793 78.983249 293.7512 77.917969 292.69727 C 76.863995 291.632 76.337891 290.3471 76.337891 288.83984 C 76.337891 287.33261 76.863995 286.05197 77.917969 284.99805 C 78.983249 283.93277 80.270144 283.40039 81.777344 283.40039 z M 109.06055 284.01172 L 115.38477 290.35156 L 113.02148 292.88477 C 112.0922 293.81405 110.97081 294.2793 109.65625 294.2793 C 108.34169 294.2793 107.2203 293.81405 106.29102 292.88477 C 105.36174 291.95549 104.89648 290.72092 104.89648 289.17969 C 104.89648 287.8651 105.64473 286.62859 107.14062 285.47266 L 109.06055 284.01172 z M 91.792969 304.98438 C 91.411422 304.98436 91.082128 305.12295 90.804688 305.40039 C 90.538767 305.66627 90.40625 305.98961 90.40625 306.37109 L 90.40625 316.25391 C 90.38385 316.23076 90.359404 316.20859 90.335938 316.18555 C 88.440151 314.2897 86.152623 313.3418 83.470703 313.3418 C 80.788783 313.3418 78.499409 314.2897 76.603516 316.18555 C 74.707729 318.08139 73.759766 320.3708 73.759766 323.05273 C 73.759766 325.73467 74.707729 328.02213 76.603516 329.91797 C 78.499409 331.81382 80.788783 332.76172 83.470703 332.76172 C 86.152623 332.76172 88.440151 331.81382 90.335938 329.91797 C 92.231831 328.02213 93.179688 325.73467 93.179688 323.05273 L 93.179688 306.37109 C 93.179688 305.98961 93.041219 305.66627 92.763672 305.40039 C 92.497859 305.12295 92.174409 304.98438 91.792969 304.98438 z M 133.41016 305.01758 C 133.2252 305.01758 133.05653 305.04766 132.90625 305.10547 L 128.74414 306.49219 C 128.57074 306.56163 128.41606 306.66596 128.27734 306.80469 C 127.9999 307.08213 127.86133 307.41149 127.86133 307.79297 C 127.86133 308.17445 127.99389 308.50381 128.25977 308.78125 C 128.53721 309.04714 128.86655 309.17969 129.24805 309.17969 C 129.43301 309.17969 129.61175 309.1454 129.78516 309.07617 L 132.02148 308.33008 L 132.02148 331.375 C 132.02148 331.75647 132.15599 332.08584 132.42188 332.36328 C 132.69932 332.62917 133.02867 332.76172 133.41016 332.76172 C 133.79164 332.76172 134.11497 332.62917 134.38086 332.36328 C 134.6583 332.08584 134.79688 331.75647 134.79688 331.375 L 134.79688 306.4043 C 134.79688 306.02281 134.6583 305.69948 134.38086 305.43359 C 134.11497 305.15615 133.79164 305.01758 133.41016 305.01758 z M 148.66797 305.01758 C 148.2865 305.01758 147.96314 305.15014 147.69727 305.41602 C 147.58164 305.53162 147.48926 305.65409 147.41992 305.78125 L 138.90625 319.89648 C 138.01613 321.22589 137.57031 322.74013 137.57031 324.43945 C 137.57031 326.7399 138.37965 328.70402 139.99805 330.33398 C 141.62801 331.95241 143.59409 332.76172 145.89453 332.76172 C 148.19499 332.76172 150.15503 331.95241 151.77344 330.33398 C 153.4034 328.70402 154.2168 326.7399 154.2168 324.43945 C 154.2168 322.13901 153.4034 320.17896 151.77344 318.56055 C 150.15503 316.93057 148.19499 316.11523 145.89453 316.11523 C 145.36278 316.11523 144.84864 316.16142 144.35156 316.25391 L 149.86523 307.11719 C 149.9924 306.9091 150.05664 306.67213 150.05664 306.40625 C 150.05664 306.02477 149.91808 305.69948 149.64062 305.43359 C 149.37475 305.15615 149.04945 305.01758 148.66797 305.01758 z M 158.37891 305.01758 C 157.99741 305.01758 157.66808 305.15615 157.39062 305.43359 C 157.12476 305.69948 156.99219 306.02477 156.99219 306.40625 L 156.99219 331.375 C 156.99219 331.75647 157.12476 332.08584 157.39062 332.36328 C 157.66808 332.62917 157.99741 332.76172 158.37891 332.76172 C 158.76039 332.76172 159.08373 332.62917 159.34961 332.36328 C 159.62705 332.08584 159.76562 331.75647 159.76562 331.375 L 159.76562 322.35742 C 159.76562 320.63498 160.37408 319.16694 161.58789 317.95312 C 162.81325 316.72777 164.28538 316.11523 166.00781 316.11523 C 167.73027 316.11523 169.19832 316.72777 170.41211 317.95312 C 171.63747 319.16694 172.25195 320.63498 172.25195 322.35742 L 172.25195 331.375 C 172.25195 331.75647 172.38451 332.08584 172.65039 332.36328 C 172.92783 332.62917 173.2572 332.76172 173.63867 332.76172 C 174.02015 332.76172 174.34349 332.62917 174.60938 332.36328 C 174.88682 332.08584 175.02539 331.75647 175.02539 331.375 L 175.02539 322.35742 C 175.02539 319.87201 174.14172 317.75127 172.37305 315.99414 C 170.61592 314.22546 168.49323 313.3418 166.00781 313.3418 C 163.58022 313.3418 161.49964 314.17927 159.76562 315.85547 L 159.76562 306.40625 C 159.76562 306.02478 159.62705 305.69948 159.34961 305.43359 C 159.08373 305.15615 158.76039 305.01758 158.37891 305.01758 z M 186.12305 305.01758 C 184.20408 305.01758 182.56932 305.69435 181.2168 307.04688 C 179.86426 308.39939 179.1875 310.03611 179.1875 311.95508 C 179.1875 312.33656 179.32006 312.66592 179.58594 312.94336 C 179.86338 313.20924 180.19274 313.3418 180.57422 313.3418 C 180.9557 313.3418 181.27904 313.20924 181.54492 312.94336 C 181.82236 312.66592 181.96094 312.33656 181.96094 311.95508 C 181.96094 310.81064 182.36659 309.83263 183.17578 309.02344 C 183.99656 308.20267 184.97861 307.79297 186.12305 307.79297 C 187.26748 307.79297 188.24354 308.20267 189.05273 309.02344 C 189.8735 309.83263 190.28516 310.81064 190.28516 311.95508 C 190.28516 313.09952 189.8735 314.08158 189.05273 314.90234 C 188.24354 315.71155 187.26748 316.11523 186.12305 316.11523 C 185.74155 316.11523 185.41221 316.2538 185.13477 316.53125 C 184.86889 316.79713 184.73633 317.12241 184.73633 317.50391 C 184.73633 317.88538 184.86889 318.21475 185.13477 318.49219 C 185.41221 318.75805 185.74155 318.89062 186.12305 318.89062 C 187.66053 318.89064 188.9679 319.43289 190.04297 320.51953 C 191.12962 321.59461 191.67188 322.90197 191.67188 324.43945 C 191.67186 325.97694 191.12962 327.28837 190.04297 328.375 C 188.9679 329.45009 187.66053 329.98828 186.12305 329.98828 C 184.58555 329.98828 183.27415 329.45009 182.1875 328.375 C 181.11242 327.28837 180.57422 325.97694 180.57422 324.43945 C 180.57422 324.05797 180.43564 323.73464 180.1582 323.46875 C 179.89234 323.19131 179.56898 323.05273 179.1875 323.05273 C 178.80602 323.05273 178.47666 323.19131 178.19922 323.46875 C 177.93333 323.73464 177.80078 324.05797 177.80078 324.43945 C 177.80078 326.7399 178.61009 328.70402 180.22852 330.33398 C 181.85848 331.95241 183.8226 332.76172 186.12305 332.76172 C 188.42348 332.76172 190.38354 331.95241 192.00195 330.33398 C 193.63193 328.70402 194.44727 326.7399 194.44727 324.43945 C 194.44727 322.13901 193.63794 320.17293 192.01953 318.54297 C 191.54557 318.08056 191.04152 317.6829 190.50977 317.34766 C 192.20908 315.78705 193.05859 313.98965 193.05859 311.95508 C 193.05859 310.03611 192.38377 308.39939 191.03125 307.04688 C 189.67873 305.69435 188.04201 305.01758 186.12305 305.01758 z M 205.54492 305.01758 C 203.24448 305.01758 201.2784 305.83292 199.64844 307.46289 C 198.03003 309.08129 197.2207 311.04135 197.2207 313.3418 C 197.2207 315.64223 198.03003 317.60635 199.64844 319.23633 C 201.2784 320.85473 203.24448 321.66406 205.54492 321.66406 C 206.07669 321.66406 206.5908 321.61788 207.08789 321.52539 L 201.57227 330.66406 C 201.4451 330.87215 201.38281 331.10912 201.38281 331.375 C 201.38281 331.75648 201.51537 332.08584 201.78125 332.36328 C 202.05869 332.62917 202.38806 332.76172 202.76953 332.76172 C 203.15101 332.76172 203.48037 332.62315 203.75781 332.3457 C 203.86192 332.2417 203.94823 332.12716 204.01758 332 L 212.53125 317.88477 C 213.42137 316.55536 213.86719 315.04111 213.86719 313.3418 C 213.86719 311.04135 213.05184 309.08129 211.42188 307.46289 C 209.80346 305.83292 207.84537 305.01758 205.54492 305.01758 z M 233.28906 305.01758 C 232.90758 305.01758 232.57627 305.15615 232.29883 305.43359 C 232.03295 305.69948 231.90039 306.02477 231.90039 306.40625 C 231.90039 306.77618 232.02889 307.09951 232.2832 307.37695 L 236.49609 311.58984 C 236.76198 311.8326 237.0793 311.95508 237.44922 311.95508 C 237.8307 311.95508 238.15404 311.82056 238.41992 311.55469 C 238.69736 311.27724 238.83789 310.94788 238.83789 310.56641 C 238.83789 310.20804 238.72145 309.89675 238.49023 309.63086 L 234.27734 305.41602 C 233.9999 305.15014 233.67056 305.01758 233.28906 305.01758 z M 266.58008 305.01758 C 264.66111 305.01758 263.02635 305.69435 261.67383 307.04688 C 260.32131 308.39939 259.64453 310.03611 259.64453 311.95508 C 259.64453 313.87404 260.32131 315.50881 261.67383 316.86133 C 261.84724 317.03473 262.01996 317.19738 262.19336 317.34766 C 261.6616 317.6829 261.16554 318.08056 260.70312 318.54297 C 259.07316 320.17293 258.25781 322.13901 258.25781 324.43945 C 258.25781 326.7399 259.06714 328.70402 260.68555 330.33398 C 262.31551 331.95241 264.27963 332.76172 266.58008 332.76172 C 268.88052 332.76172 270.84057 331.95241 272.45898 330.33398 C 274.08896 328.70402 274.9043 326.7399 274.9043 324.43945 C 274.9043 322.13901 274.09497 320.17293 272.47656 318.54297 C 272.0026 318.08056 271.5005 317.6829 270.96875 317.34766 C 271.14215 317.19738 271.31488 317.03473 271.48828 316.86133 C 272.84081 315.50881 273.51758 313.87404 273.51758 311.95508 C 273.51758 310.03611 272.84081 308.39939 271.48828 307.04688 C 270.13576 305.69435 268.49905 305.01758 266.58008 305.01758 z M 279.06641 305.01758 C 278.68491 305.01758 278.35558 305.15615 278.07812 305.43359 C 277.81226 305.69948 277.67773 306.02477 277.67773 306.40625 L 277.67773 331.375 C 277.67773 331.75647 277.81226 332.08584 278.07812 332.36328 C 278.35558 332.62917 278.68491 332.76172 279.06641 332.76172 C 279.44788 332.76172 279.77122 332.62917 280.03711 332.36328 C 280.31455 332.08584 280.45312 331.75647 280.45312 331.375 L 280.45312 322.35742 C 280.45312 320.63498 281.05962 319.16694 282.27344 317.95312 C 283.49879 316.72777 284.97287 316.11523 286.69531 316.11523 C 288.41777 316.11523 289.8858 316.72777 291.09961 317.95312 C 292.32496 319.16694 292.9375 320.63498 292.9375 322.35742 L 292.9375 331.375 C 292.9375 331.75647 293.07005 332.08584 293.33594 332.36328 C 293.61338 332.62917 293.94274 332.76172 294.32422 332.76172 C 294.7057 332.76172 295.031 332.62917 295.29688 332.36328 C 295.57432 332.08584 295.71289 331.75647 295.71289 331.375 L 295.71289 322.35742 C 295.71289 319.87201 294.82729 317.75127 293.05859 315.99414 C 291.30147 314.22546 289.18072 313.3418 286.69531 313.3418 C 284.26771 313.3418 282.18713 314.17927 280.45312 315.85547 L 280.45312 306.40625 C 280.45312 306.02478 280.31455 305.69948 280.03711 305.43359 C 279.77122 305.15615 279.44788 305.01758 279.06641 305.01758 z M 306.81055 305.01758 C 304.89158 305.01758 303.25488 305.69435 301.90234 307.04688 C 299.62502 309.39355 298.48633 313.34181 298.48633 318.89062 C 298.48633 324.43946 299.62502 328.38769 301.90234 330.73438 C 303.25488 332.0869 304.89158 332.76172 306.81055 332.76172 C 308.72951 332.76172 310.36427 332.0869 311.7168 330.73438 C 313.99412 328.38769 315.13281 324.43946 315.13281 318.89062 C 315.13281 313.34181 313.99412 309.39355 311.7168 307.04688 C 310.36427 305.69435 308.72951 305.01758 306.81055 305.01758 z M 320.68164 305.01758 C 320.30016 305.01758 319.9708 305.15615 319.69336 305.43359 C 319.42747 305.69948 319.29492 306.02477 319.29492 306.40625 L 319.29492 316.11523 C 319.29492 316.49673 319.42747 316.82608 319.69336 317.10352 C 319.9708 317.36939 320.30016 317.50391 320.68164 317.50391 L 326.92383 317.50391 C 328.64627 317.50391 330.11432 318.11642 331.32812 319.3418 C 332.55349 320.5556 333.16602 322.02365 333.16602 323.74609 C 333.16602 325.46855 332.55349 326.9426 331.32812 328.16797 C 330.11432 329.38177 328.64627 329.98828 326.92383 329.98828 C 325.20139 329.98828 323.72733 329.38177 322.50195 328.16797 C 321.28815 326.9426 320.68164 325.46855 320.68164 323.74609 C 320.68164 323.36461 320.54308 323.03931 320.26562 322.77344 C 319.99975 322.496 319.6764 322.35742 319.29492 322.35742 C 318.91345 322.35742 318.58408 322.496 318.30664 322.77344 C 318.04076 323.03931 317.9082 323.36461 317.9082 323.74609 C 317.9082 326.2315 318.78584 328.35826 320.54297 330.12695 C 322.31165 331.88408 324.43842 332.76172 326.92383 332.76172 C 329.40924 332.76172 331.53194 331.88408 333.28906 330.12695 C 335.05775 328.35826 335.94141 326.2315 335.94141 323.74609 C 335.94141 321.26069 335.05775 319.13799 333.28906 317.38086 C 331.53194 315.61218 329.40924 314.72852 326.92383 314.72852 L 322.06836 314.72852 L 322.06836 307.79297 L 333.16602 307.79297 C 333.54749 307.79297 333.87278 307.66043 334.13867 307.39453 C 334.41611 307.11709 334.55469 306.78773 334.55469 306.40625 C 334.55469 306.02477 334.41611 305.69948 334.13867 305.43359 C 333.87278 305.15615 333.54749 305.01758 333.16602 305.01758 L 320.68164 305.01758 z M 205.54492 307.79297 C 207.08242 307.79297 208.3878 308.33523 209.46289 309.42188 C 210.54953 310.49696 211.09375 311.8043 211.09375 313.3418 C 211.09375 314.87928 210.54953 316.19069 209.46289 317.27734 C 208.3878 318.35243 207.08242 318.89062 205.54492 318.89062 C 204.00744 318.89062 202.69406 318.35243 201.60742 317.27734 C 200.53234 316.19069 199.99609 314.87928 199.99609 313.3418 C 199.99609 311.8043 200.53234 310.49696 201.60742 309.42188 C 202.69406 308.33523 204.00744 307.79297 205.54492 307.79297 z M 266.58008 307.79297 C 267.72452 307.79297 268.70251 308.20267 269.51172 309.02344 C 270.33249 309.83263 270.74219 310.81064 270.74219 311.95508 C 270.74219 313.09952 270.33249 314.08158 269.51172 314.90234 C 268.70251 315.71155 267.72452 316.11523 266.58008 316.11523 C 265.43564 316.11523 264.45358 315.71155 263.63281 314.90234 C 262.82361 314.08158 262.41992 313.09952 262.41992 311.95508 C 262.41992 310.81064 262.82361 309.83263 263.63281 309.02344 C 264.45358 308.20267 265.43564 307.79297 266.58008 307.79297 z M 306.81055 307.79297 C 307.95498 307.79297 308.93706 308.20267 309.75781 309.02344 C 311.49182 310.97707 312.35938 314.26661 312.35938 318.89062 C 312.35938 323.51465 311.49182 326.80221 309.75781 328.75586 C 308.93706 329.57662 307.95498 329.98828 306.81055 329.98828 C 305.6661 329.98828 304.68209 329.57662 303.86133 328.75586 C 302.12733 326.80221 301.26172 323.51465 301.26172 318.89062 C 301.26172 314.26661 302.12733 310.97707 303.86133 309.02344 C 304.68209 308.20267 305.6661 307.79297 306.81055 307.79297 z M 105.66602 313.3418 C 102.9841 313.3418 100.69461 314.28971 98.798828 316.18555 C 96.903041 318.08139 95.955078 320.3708 95.955078 323.05273 C 95.955078 325.73465 96.903041 328.02213 98.798828 329.91797 C 100.69461 331.81382 102.9841 332.76172 105.66602 332.76172 C 108.09364 332.76172 110.20225 331.98249 111.99414 330.42188 C 112.26006 330.14442 112.39258 329.81508 112.39258 329.43359 C 112.39258 329.05211 112.25411 328.72681 111.97656 328.46094 C 111.71075 328.1835 111.38741 328.04492 111.00586 328.04492 C 110.68223 328.04492 110.39307 328.14337 110.13867 328.33984 C 108.89025 329.43805 107.4001 329.98828 105.66602 329.98828 C 103.74708 329.98828 102.11035 329.31152 100.75781 327.95898 C 99.740532 326.9417 99.105856 325.76885 98.851562 324.43945 L 113.98828 324.43945 C 114.36983 324.43945 114.69313 324.30689 114.95898 324.04102 C 115.23642 323.76358 115.375 323.43421 115.375 323.05273 C 115.375 320.3708 114.42714 318.08139 112.53125 316.18555 C 110.63546 314.28971 108.34794 313.3418 105.66602 313.3418 z M 236.0625 313.3418 C 233.38057 313.3418 231.09116 314.28971 229.19531 316.18555 C 227.29947 318.08139 226.35156 320.3708 226.35156 323.05273 C 226.35156 325.73465 227.29947 328.02213 229.19531 329.91797 C 231.09116 331.81382 233.38057 332.76172 236.0625 332.76172 C 238.74443 332.76172 241.05596 331.7917 242.99805 329.84961 L 242.99805 331.375 C 242.99805 331.75648 243.13061 332.08584 243.39648 332.36328 C 243.67392 332.62917 244.00524 332.76172 244.38672 332.76172 C 244.7682 332.76172 245.09154 332.62917 245.35742 332.36328 C 245.63486 332.08584 245.77344 331.75648 245.77344 331.375 L 245.77344 323.05273 C 245.77344 320.3708 244.82554 318.08139 242.92969 316.18555 C 241.03384 314.28971 238.74443 313.3418 236.0625 313.3418 z M 83.470703 316.11523 C 85.389637 316.11523 87.02442 316.792 88.376953 318.14453 C 89.729487 319.49706 90.40625 321.13377 90.40625 323.05273 C 90.40625 324.9717 89.729487 326.60647 88.376953 327.95898 C 87.02442 329.31152 85.389637 329.98828 83.470703 329.98828 C 81.55177 329.98828 79.915033 329.31152 78.5625 327.95898 C 77.209967 326.60647 76.533203 324.9717 76.533203 323.05273 C 76.533203 321.13377 77.209967 319.49706 78.5625 318.14453 C 79.915033 316.792 81.55177 316.11523 83.470703 316.11523 z M 105.66602 316.11523 C 107.58506 316.11523 109.21984 316.792 110.57227 318.14453 C 111.58955 319.16182 112.22618 320.33467 112.48047 321.66406 L 98.851562 321.66406 C 99.105856 320.33467 99.740532 319.16182 100.75781 318.14453 C 102.11035 316.792 103.74708 316.11523 105.66602 316.11523 z M 236.0625 316.11523 C 237.98147 316.11523 239.61818 316.792 240.9707 318.14453 C 242.32324 319.49706 242.99805 321.13377 242.99805 323.05273 C 242.99805 324.9717 242.32324 326.60647 240.9707 327.95898 C 239.61818 329.31152 237.98147 329.98828 236.0625 329.98828 C 234.14353 329.98828 232.50878 329.31152 231.15625 327.95898 C 229.80374 326.60647 229.12695 324.9717 229.12695 323.05273 C 229.12695 321.13377 229.80374 319.49706 231.15625 318.14453 C 232.50878 316.792 234.14353 316.11523 236.0625 316.11523 z M 145.89453 318.89062 C 147.43202 318.89062 148.73741 319.43289 149.8125 320.51953 C 150.89915 321.59461 151.44336 322.90197 151.44336 324.43945 C 151.44336 325.97694 150.89915 327.28837 149.8125 328.375 C 148.73741 329.45009 147.43202 329.98828 145.89453 329.98828 C 144.35705 329.98828 143.04563 329.45009 141.95898 328.375 C 140.88391 327.28837 140.3457 325.97694 140.3457 324.43945 C 140.3457 322.90197 140.88391 321.59461 141.95898 320.51953 C 143.04563 319.43289 144.35705 318.89062 145.89453 318.89062 z M 266.58008 318.89062 C 268.11756 318.89062 269.42492 319.43289 270.5 320.51953 C 271.58665 321.59461 272.12891 322.90197 272.12891 324.43945 C 272.12891 325.97694 271.58665 327.28837 270.5 328.375 C 269.42492 329.45009 268.11756 329.98828 266.58008 329.98828 C 265.04258 329.98828 263.73118 329.45009 262.64453 328.375 C 261.56945 327.28837 261.03125 325.97694 261.03125 324.43945 C 261.03125 322.90197 261.56945 321.59461 262.64453 320.51953 C 263.73118 319.43289 265.04258 318.89062 266.58008 318.89062 z M 17.185547 352.36523 L 17.185547 354.32812 L 392.51367 354.32812 L 392.51367 352.36523 L 17.185547 352.36523 z "
       transform="matrix(0.93749995,0,0,0.93749995,-1107.642,359.17612)"
       id="path17904" />
  </g>
</svg>
