<svg xmlns="http://www.w3.org/2000/svg" viewBox="0 0 64 64" x="0px" y="0px">
  <g>
    <path fill="#fff" d="M32,24.875a4.5,4.5,0,1,0,4.5,4.5A4.505,4.505,0,0,0,32,24.875Zm0,7a2.5,2.5,0,1,1,2.5-2.5A2.5,2.5,0,0,1,32,31.875Z"/>
    <path fill="#fff" d="M53,53.9a3,3,0,1,0-3-3A3,3,0,0,0,53,53.9Zm0-4a1,1,0,1,1-1,1A1,1,0,0,1,53,49.9Z"/>
    <path fill="#fff" d="M53,5.9a3,3,0,1,0,3,3A3,3,0,0,0,53,5.9Zm0,4a1,1,0,1,1,1-1A1,1,0,0,1,53,9.9Z"/>
    <path fill="#fff" d="M53,2a8.989,8.989,0,0,0-7.025,14.611l-6.941,6.941a10.97,10.97,0,0,0-14.068,0l-6.984-6.984a8.995,8.995,0,1,0-11.7,1.995l.012.007-.006.01,1.773.928c.018-.035.037-.068.055-.1a8.856,8.856,0,0,0,8.441-1.437l7,7a10.97,10.97,0,0,0,0,14.068l-6.941,6.941A8.918,8.918,0,0,0,8.064,44.5c-.015-.029-.032-.058-.047-.087l-1.23.637c-.034.018-.069.035-.1.054l-.442.229.016.03A8.991,8.991,0,1,0,18.635,57.742l.028.016.224-.431c.024-.043.046-.088.069-.132l.631-1.211c-.03-.015-.059-.032-.089-.048a8.918,8.918,0,0,0-1.473-8.547l6.941-6.941a10.97,10.97,0,0,0,14.068,0l6.941,6.941A8.918,8.918,0,0,0,44.5,55.936c-.03.016-.059.033-.089.048l.631,1.211c.023.044.045.089.069.132l.224.431.028-.016A8.991,8.991,0,1,0,57.742,45.365l.016-.03-.442-.229c-.034-.019-.069-.036-.1-.054l-1.23-.637c-.015.029-.032.058-.047.087a8.918,8.918,0,0,0-8.547,1.473l-6.941-6.941a10.97,10.97,0,0,0,0-14.068l6.941-6.941A8.918,8.918,0,0,0,55.936,19.5c.015.029.032.058.047.087l1.23-.637c.034-.018.069-.035.1-.054l.442-.229-.016-.03A8.991,8.991,0,0,0,53,2ZM4,10.9a7,7,0,1,1,11.821,5.062,5.175,5.175,0,0,0-9.642,0A6.942,6.942,0,0,1,4,10.9Zm3.884,6.253a3.2,3.2,0,0,1,6.234.005,6.9,6.9,0,0,1-6.234-.005Zm0,42.1a3.2,3.2,0,0,1,6.234.005,6.9,6.9,0,0,1-6.234-.005Zm7.937-1.191a5.175,5.175,0,0,0-9.642,0,7,7,0,1,1,9.642,0ZM27.843,39.974a4.224,4.224,0,0,1,8.314,0,8.938,8.938,0,0,1-8.314,0ZM49.892,59.263a3.2,3.2,0,0,1,6.216,0,6.922,6.922,0,0,1-6.216,0ZM53,46a6.991,6.991,0,0,1,4.805,12.077,5.172,5.172,0,0,0-9.611,0A6.991,6.991,0,0,1,53,46ZM37.916,38.766a6.235,6.235,0,0,0-11.832,0,9,9,0,1,1,11.832,0Zm11.976-21.5a3.2,3.2,0,0,1,6.216,0,6.922,6.922,0,0,1-6.216,0Zm7.913-1.186a5.172,5.172,0,0,0-9.611,0,7,7,0,1,1,9.611,0Z"/>
    <path fill="#fff" d="M11,47.9a3,3,0,1,0,3,3A3,3,0,0,0,11,47.9Zm0,4a1,1,0,1,1,1-1A1,1,0,0,1,11,51.9Z"/>
    <path fill="#fff" d="M11,11.8a3,3,0,1,0-3-3A3,3,0,0,0,11,11.8Zm0-4a1,1,0,1,1-1,1A1,1,0,0,1,11,7.8Z"/>
    <path fill="#fff" d="M34.979,58.837c-.65.071-1.316.12-1.979.144l.073,2c.712-.025,1.426-.078,2.123-.154Z"/>
    <path fill="#fff" d="M42.623,56.831c-.609.261-1.231.5-1.85.712l.648,1.893c.665-.228,1.335-.486,1.99-.767Z"/>
    <path fill="#fff" d="M25.138,58.12l-.507,1.936c.684.178,1.384.335,2.08.463l.362-1.967C26.425,58.433,25.774,58.287,25.138,58.12Z"/>
    <path fill="#fff" d="M31.015,58.982c-.659-.023-1.324-.072-1.978-.143l-.218,1.988c.7.077,1.418.129,2.125.153Z"/>
    <path fill="#fff" d="M38.875,58.117c-.632.166-1.284.312-1.936.433l.365,1.967c.7-.13,1.4-.287,2.078-.464Z"/>
    <path fill="#fff" d="M23.241,57.548c-.63-.217-1.253-.457-1.85-.713L20.6,58.673c.643.276,1.312.533,1.988.765Z"/>
    <path fill="#fff" d="M60.519,37.29l-1.967-.363c-.12.648-.265,1.3-.431,1.936l1.934.506C60.234,38.687,60.39,37.986,60.519,37.29Z"/>
    <path fill="#fff" d="M59.439,41.408l-1.891-.648c-.214.623-.453,1.245-.712,1.85l1.839.787C58.953,42.746,59.21,42.077,59.439,41.408Z"/>
    <path fill="#fff" d="M60.98,30.928c-.025-.705-.077-1.419-.154-2.124l-1.989.218c.073.656.121,1.322.144,1.978Z"/>
    <path fill="#fff" d="M56.831,21.377c.26.608.5,1.23.712,1.851l1.892-.651c-.228-.665-.486-1.334-.767-1.987Z"/>
    <path fill="#fff" d="M60.981,33.057l-2-.073c-.024.661-.072,1.327-.143,1.979l1.988.217C60.9,34.479,60.955,33.765,60.981,33.057Z"/>
    <path fill="#fff" d="M58.117,25.125c.168.64.314,1.29.432,1.935l1.967-.364c-.128-.692-.284-1.391-.464-2.079Z"/>
    <path fill="#fff" d="M35.028,5.168,35.25,3.18c-.716-.08-1.447-.134-2.17-.159l-.072,2C33.682,5.043,34.361,5.093,35.028,5.168Z"/>
    <path fill="#fff" d="M39.007,5.918l.516-1.932c-.7-.187-1.415-.35-2.12-.483l-.372,1.965C37.688,5.592,38.353,5.744,39.007,5.918Z"/>
    <path fill="#fff" d="M28.959,5.17c.659-.074,1.34-.125,2.022-.151l-.077-2c-.731.028-1.46.082-2.167.161Z"/>
    <path fill="#fff" d="M42.825,7.257l.8-1.832c-.662-.29-1.343-.559-2.025-.8l-.662,1.887C41.575,6.737,42.209,6.987,42.825,7.257Z"/>
    <path fill="#fff" d="M20.362,5.43l.8,1.832c.611-.269,1.245-.519,1.884-.743l-.664-1.887C21.7,4.873,21.019,5.142,20.362,5.43Z"/>
    <path fill="#fff" d="M24.983,5.921c.648-.174,1.312-.326,1.974-.451l-.372-1.965c-.711.135-1.424.3-2.121.484Z"/>
    <path fill="#fff" d="M3.021,30.893l2,.074c.024-.661.074-1.329.147-1.986l-1.988-.22C3.1,29.464,3.047,30.182,3.021,30.893Z"/>
    <path fill="#fff" d="M3.478,37.276c.13.7.286,1.4.464,2.085l1.935-.506c-.166-.633-.311-1.287-.432-1.942Z"/>
    <path fill="#fff" d="M3.494,26.647l1.965.368c.123-.654.27-1.306.438-1.941l-1.934-.512C3.783,25.244,3.625,25.945,3.494,26.647Z"/>
    <path fill="#fff" d="M5.36,20.522c-.281.651-.541,1.322-.774,1.994l1.891.654c.216-.626.458-1.25.719-1.855Z"/>
    <path fill="#fff" d="M7.167,42.616c-.261-.607-.5-1.231-.714-1.856l-1.893.648c.23.671.488,1.343.769,1.995Z"/>
    <path fill="#fff" d="M3.17,35.16l1.988-.217c-.071-.655-.118-1.322-.141-1.983l-2,.068C3.042,33.739,3.093,34.456,3.17,35.16Z"/>
  </g>
</svg>