<svg xmlns:dc="http://purl.org/dc/elements/1.1/" xmlns:cc="http://creativecommons.org/ns#" xmlns:rdf="http://www.w3.org/1999/02/22-rdf-syntax-ns#" xmlns:svg="http://www.w3.org/2000/svg" xmlns="http://www.w3.org/2000/svg" xmlns:sodipodi="http://sodipodi.sourceforge.net/DTD/sodipodi-0.dtd" xmlns:inkscape="http://www.inkscape.org/namespaces/inkscape" version="1.1" x="0px" y="0px" viewBox="0 0 100 100">
  <g transform="translate(0,-952.36218)">
    <path style="font-size:medium;font-style:normal;font-variant:normal;font-weight:normal;font-stretch:normal;text-indent:0;text-align:start;text-decoration:none;line-height:normal;letter-spacing:normal;word-spacing:normal;text-transform:none;direction:ltr;block-progression:tb;writing-mode:lr-tb;text-anchor:start;baseline-shift:baseline;opacity:1;color:#000000;fill:#a6a6a6;fill-opacity:1;stroke:none;stroke-width:2;marker:none;visibility:visible;display:inline;overflow:visible;enable-background:accumulate;font-family:Sans;-inkscape-font-specification:Sans" d="M 11.09375 21 C 8.8383762 21 7 22.83838 7 25.09375 L 7 74.875 C 7 77.1304 8.8383762 79 11.09375 79 L 88.90625 79 C 91.161624 79 93 77.1304 93 74.875 L 93 25.09375 C 93 22.83838 91.161624 21 88.90625 21 L 11.09375 21 z M 11.09375 23 L 88.90625 23 C 89.116788 23 89.310233 23.070767 89.5 23.125 L 50 54.96875 L 10.5 23.125 C 10.689767 23.070767 10.883212 23 11.09375 23 z M 9.09375 24.53125 L 40.65625 50 L 9.09375 75.5 C 9.0365475 75.303915 9 75.091434 9 74.875 L 9 25.09375 C 9 24.887704 9.0417327 24.717476 9.09375 24.53125 z M 90.90625 24.53125 C 90.958267 24.717476 91 24.887704 91 25.09375 L 91 74.875 C 91 75.091434 90.963453 75.303915 90.90625 75.5 L 59.34375 50 L 90.90625 24.53125 z M 42.25 51.28125 L 49.375 57.03125 A 1.0001 1.0001 0 0 0 50.625 57.03125 L 57.75 51.28125 L 89.5 76.90625 C 89.310233 76.962111 89.116788 77 88.90625 77 L 11.09375 77 C 10.883212 77 10.689767 76.962111 10.5 76.90625 L 42.25 51.28125 z " transform="translate(0,952.36218)"/>
  </g>
</svg>