<svg xmlns="http://www.w3.org/2000/svg" xmlns:xlink="http://www.w3.org/1999/xlink" viewBox="0 0 303.08 173.98"><defs><style>.cls-1{fill:url(#linear-gradient);}.cls-2,.cls-3{opacity:0.6;}.cls-2{fill:url(#linear-gradient-2);}.cls-3{fill:url(#linear-gradient-3);}.cls-4{fill:url(#linear-gradient-4);}.cls-5{fill:url(#linear-gradient-5);}</style><linearGradient id="linear-gradient" y1="143.67" x2="303.08" y2="143.67" gradientUnits="userSpaceOnUse"><stop offset="0" stop-color="#f0735b"/><stop offset="1" stop-color="#ed0057"/></linearGradient><linearGradient id="linear-gradient-2" x1="109.77" y1="24.63" x2="124.59" y2="24.63" xlink:href="#linear-gradient"/><linearGradient id="linear-gradient-3" x1="142.17" y1="24.63" x2="156.98" y2="24.63" gradientTransform="matrix(-1, 0, 0, 1, 336.82, 0)" xlink:href="#linear-gradient"/><linearGradient id="linear-gradient-4" x1="130.32" y1="8.76" x2="180" y2="62.23" xlink:href="#linear-gradient"/><linearGradient id="linear-gradient-5" x1="97.25" y1="79.19" x2="207.09" y2="79.19" xlink:href="#linear-gradient"/></defs><title>Fichier 1</title><g id="Calque_2" data-name="Calque 2"><g id="Calque_1-2" data-name="Calque 1"><path class="cls-1" d="M197.27,143.81c0-10.67,8-19.12,18.67-19.12s18.59,8.45,18.59,19.12-7.91,19.08-18.59,19.08-18.67-8.41-18.67-19.08m-11.58,0a30.19,30.19,0,1,0,30.25-30.21,30.2,30.2,0,0,0-30.25,30.21M50.86,171.38l-24.44-32,20.32-23.12c.65-.78.57-1.85-.58-1.85H35.94a2.55,2.55,0,0,0-2.43,1.15l-22,24.93V116.08a1.76,1.76,0,0,0-1.65-1.65H1.53A1.49,1.49,0,0,0,0,116.08v55.51c0,1.07.49,1.61,1.53,1.61H10c1,0,1.53-.54,1.53-1.61v-15.7l7.17-7.71,17.85,23.57c.66.87,1.15,1.45,2.1,1.45H50.2c1.11,0,1.44-.87.66-1.82m43-23-16.51,8.5,9.82-27.25Zm20.92,23.12L92.48,115.93a2.07,2.07,0,0,0-2-1.52H83.87a2.06,2.06,0,0,0-2,1.52L59.51,171.49c-.45,1.11,0,1.68,1.07,1.68H72.06c1.26-.78,25.24-13.69,25.24-13.69l5.77,12.25a2,2,0,0,0,1.94,1.44h8.65c1,0,1.57-.57,1.11-1.68m46.66-37.94a9.28,9.28,0,0,1-9.6,9.23H139.51v-18.5h12.32a9.36,9.36,0,0,1,9.6,9.27m12.61,38-10.8-21.39c5.94-3.42,10-9.77,10-16.36,0-10-7.75-19.29-18.63-19.29H129.49A1.41,1.41,0,0,0,128,116v55.59a1.37,1.37,0,0,0,1.52,1.57h8.45a1.4,1.4,0,0,0,1.57-1.57V152.88h12l9.4,18.91c.53,1.12,1,1.41,1.85,1.41H173a1.13,1.13,0,0,0,1-1.69M299.78,124.9a2,2,0,0,0,0-3.05c-4.61-4.74-11.45-8.49-18.34-8.49-12.73,0-21.39,6.67-21.39,16.4,0,9,6.85,14.05,19.66,17.88,4.21,1.12,11.09,2.81,11.09,7.88,0,3.95-3.71,7.7-10,7.7-6,0-10.43-3.62-13.73-6.8-.95-.82-1.77-1.27-2.72-.41l-5.32,5.19c-1.15,1.12-.45,2.06.38,3a30.06,30.06,0,0,0,21.63,9.73c11.46,0,22-7.13,22-18.05s-8.94-15.25-19.58-18.42c-6.76-1.86-11.54-3.18-11.54-7.55,0-5.44,5.07-6.51,9.15-6.51,4.62,0,8.78,3.34,11.3,5.44,1,.83,2,1.44,3,.5Z"/><path class="cls-2" d="M109.91,25.87a.44.44,0,0,0,.09.69l8.06,5.12a.63.63,0,0,0,.81-.11l5.56-6.25a.59.59,0,0,0,0-.8L118,17.64a.48.48,0,0,0-.73,0Z"/><path class="cls-3" d="M194.52,25.87a.44.44,0,0,1-.1.69l-8.06,5.12a.63.63,0,0,1-.81-.11L180,25.32a.6.6,0,0,1,0-.8l6.44-6.88a.48.48,0,0,1,.73,0Z"/><path class="cls-4" d="M221.07,15c-.56-.71-1.54-.76-2.79.09L187.4,36a2.57,2.57,0,0,1-1.27.37,1.87,1.87,0,0,1-1.46-.74L154.78,1.25A3.61,3.61,0,0,0,152.24,0a3.18,3.18,0,0,0-2.41,1.23L120.17,35.48a2.49,2.49,0,0,1-1.63.78,2.13,2.13,0,0,1-1.15-.38L86,15.05a3.53,3.53,0,0,0-1.65-.57,1.46,1.46,0,0,0-1.18.56A2.53,2.53,0,0,0,83,17.23L95.83,62.39a4.51,4.51,0,0,0,4.32,3.31H204.56a4.36,4.36,0,0,0,4.23-3.36l12.57-45.18A2.79,2.79,0,0,0,221.07,15Z"/><path class="cls-5" d="M204.24,73.39H100.1a2.77,2.77,0,0,0-2.85,2.85v5.9A2.78,2.78,0,0,0,100.1,85H204.24a2.78,2.78,0,0,0,2.85-2.86v-5.9A2.77,2.77,0,0,0,204.24,73.39Z"/></g></g></svg>