<svg xmlns="http://www.w3.org/2000/svg" xmlns:xlink="http://www.w3.org/1999/xlink" version="1.1" x="0px" y="0px" viewBox="0 0 100 100" style="enable-background:new 0 0 100 100;" xml:space="preserve">
  <path fill="#fff" d="M65,5H35c-1.1,0-2,0.9-2,2v22c0,1.1,0.9,2,2,2h30c1.1,0,2-0.9,2-2V7C67,5.9,66.1,5,65,5z M63,27H37V9h26V27z M65,69H35  c-1.1,0-2,0.9-2,2v22c0,1.1,0.9,2,2,2h30c1.1,0,2-0.9,2-2V71C67,69.9,66.1,69,65,69z M63,91H37V73h26V91z M65,37H35  c-1.1,0-2,0.9-2,2v22c0,1.1,0.9,2,2,2h30c1.1,0,2-0.9,2-2V39C67,37.9,66.1,37,65,37z M63,59H37V41h26V59z M95,18v32c0,1.1-0.9,2-2,2  H79.83l4.59,4.59c0.78,0.78,0.78,2.05,0,2.83C84.02,59.8,83.51,60,83,60s-1.02-0.2-1.41-0.59l-8-8c-0.09-0.09-0.18-0.2-0.25-0.31  c-0.03-0.05-0.05-0.1-0.08-0.15c-0.03-0.06-0.07-0.12-0.1-0.19c-0.03-0.07-0.04-0.13-0.06-0.2c-0.02-0.06-0.04-0.11-0.05-0.17  c-0.05-0.26-0.05-0.52,0-0.78c0.01-0.06,0.03-0.11,0.05-0.17c0.02-0.07,0.04-0.14,0.06-0.2c0.03-0.07,0.07-0.13,0.1-0.19  c0.03-0.05,0.05-0.1,0.08-0.15c0.07-0.11,0.16-0.21,0.25-0.31l8-8c0.78-0.78,2.05-0.78,2.83,0c0.78,0.78,0.78,2.05,0,2.83L79.83,48  H91V20H75c-1.1,0-2-0.9-2-2s0.9-2,2-2h18C94.1,16,95,16.9,95,18z M9,52v28h11.17l-4.59-4.59c-0.78-0.78-0.78-2.05,0-2.83  c0.78-0.78,2.05-0.78,2.83,0l8,8c0.09,0.09,0.18,0.2,0.25,0.31c0.03,0.05,0.05,0.1,0.08,0.15c0.04,0.06,0.07,0.13,0.1,0.2  c0.03,0.07,0.04,0.13,0.06,0.2c0.02,0.06,0.04,0.11,0.05,0.17c0.05,0.26,0.05,0.52,0,0.78c-0.01,0.06-0.03,0.12-0.05,0.17  c-0.02,0.07-0.04,0.13-0.06,0.2c-0.03,0.07-0.07,0.13-0.1,0.2c-0.03,0.05-0.05,0.1-0.08,0.15c-0.07,0.11-0.16,0.21-0.25,0.31l-8,8  C18.02,91.8,17.51,92,17,92s-1.02-0.2-1.41-0.59c-0.78-0.78-0.78-2.05,0-2.83L20.17,84H7c-1.1,0-2-0.9-2-2V50c0-1.1,0.9-2,2-2h18  c1.1,0,2,0.9,2,2s-0.9,2-2,2H9z"/>
</svg>