<svg xmlns="http://www.w3.org/2000/svg" xmlns:xlink="http://www.w3.org/1999/xlink" version="1.1" x="0px" y="0px" viewBox="-5.75 -5.567 95.5 130" enable-background="new -5.75 -5.567 95.5 130.933" xml:space="preserve">
  <circle fill="#fff" cx="70.347" cy="14.772" r="10.841"/>
  <path fill="#fff" d="M59.757,72.198c1.404-5.875,2.369-11.886,3.549-17.81l1.355,5.443c1.18,4.729,8.25,5.888,9.143-0.107  c0.616-1.543,0.84-3.382,1.238-4.993c1.182-4.755,2.36-9.51,3.541-14.265c1.455-5.867-7.642-8.125-9.099-2.259l-0.274,1.108  c-0.466-3.556-0.439-5.784-1.162-8.676c-1.164-4.672-6.945-6.966-11.522-5.812v29.034c0,6.625-7.009,12.015-15.625,12.015h-0.182  c-1.487,8.22-2.974,16.439-4.461,24.659c-0.614,3.396-2.726,5.495-4.778,8.31c-3.196,4.379-6.392,8.76-9.588,13.139  c-2.459,3.373-0.572,8.334,3.532,9.188c2.943,0.613,5.048-1.067,6.65-3.266c3.41-4.673,6.819-9.345,10.229-14.017  c2.44-3.345,4.498-5.812,5.245-9.938c0.874-4.833,1.749-9.666,2.623-14.499l17.354,38.562c3.104,6.902,13.775,2.062,10.686-4.81  L59.757,72.198z"/>
  <path fill="#fff" d="M41.264,62.863c6.793-0.139,12.261-4.119,12.261-9.001V12.505v-3.99c0-4.971-5.663-9.015-12.625-9.015H9.003  c-7.653,0-9.259,4.902-9.259,9.015v45.346c0,4.112,1.606,9.015,9.259,9.015h31.897C41.024,62.876,41.143,62.865,41.264,62.863z"/>
</svg>