<svg xmlns:dc="http://purl.org/dc/elements/1.1/" xmlns:cc="http://creativecommons.org/ns#" xmlns:rdf="http://www.w3.org/1999/02/22-rdf-syntax-ns#" xmlns:svg="http://www.w3.org/2000/svg" xmlns="http://www.w3.org/2000/svg" xmlns:sodipodi="http://sodipodi.sourceforge.net/DTD/sodipodi-0.dtd" xmlns:inkscape="http://www.inkscape.org/namespaces/inkscape" version="1.1" x="0px" y="0px" viewBox="0 0 100 100">
  <g transform="translate(0,-952.36218)">
    <path style="font-size:medium;font-style:normal;font-variant:normal;font-weight:normal;font-stretch:normal;text-indent:0;text-align:start;text-decoration:none;line-height:normal;letter-spacing:normal;word-spacing:normal;text-transform:none;direction:ltr;block-progression:tb;writing-mode:lr-tb;text-anchor:start;baseline-shift:baseline;opacity:1;color:#000000;fill:#a6a6a6;fill-opacity:1;stroke:none;stroke-width:2;marker:none;visibility:visible;display:inline;overflow:visible;enable-background:accumulate;font-family:Sans;-inkscape-font-specification:Sans" d="M 20.53125 7 C 19.105754 6.9526908 17.597797 7.5642537 15.8125 8.6875 A 1.0001 1.0001 0 0 0 15.65625 8.8125 C 6.7127614 17.756 5.3717868 28.81031 8.65625 39.75 C 11.940713 50.6897 19.716917 61.6232 29.03125 70.9375 C 38.34561 80.2517 49.279071 88.05925 60.21875 91.34375 C 71.158429 94.62815 82.212762 93.28725 91.15625 84.34375 A 1.0001 1.0001 0 0 0 91.3125 84.15625 C 92.59619 82.11595 93.209569 80.4868 92.9375 78.875 C 92.665431 77.2632 91.593809 75.9688 90.0625 74.4375 L 77.3125 61.71875 C 76.733797 61.14005 75.8943 60.8907 75.15625 61 C 74.4182 61.1093 73.769163 61.45795 73.125 61.90625 C 71.836673 62.80295 70.541425 64.1447 69.21875 65.5 C 67.896075 66.8553 66.537504 68.20815 65.375 69.03125 C 64.793748 69.44285 64.256233 69.73655 63.84375 69.84375 C 63.431267 69.95085 63.177928 69.92625 62.90625 69.78125 C 57.982189 67.15765 50.947715 61.3204 44.71875 55.25 C 38.654429 49.0252 32.840065 41.98207 30.21875 37.0625 C 30.073957 36.79083 30.049122 36.53748 30.15625 36.125 C 30.263378 35.71252 30.525925 35.175 30.9375 34.59375 C 31.76065 33.43125 33.113441 32.10393 34.46875 30.78125 C 35.824059 29.45857 37.197128 28.16333 38.09375 26.875 C 38.542061 26.23083 38.890671 25.5818 39 24.84375 C 39.109329 24.1057 38.859945 23.23495 38.28125 22.65625 L 25.53125 9.9375 C 23.99993 8.40618 22.736835 7.33456 21.125 7.0625 C 20.923521 7.0284925 20.734892 7.0067585 20.53125 7 z M 20.0625 9.03125 C 20.320014 9.0057347 20.558651 8.9936775 20.78125 9.03125 C 21.67891 9.18277 22.671055 9.88981 24.125 11.34375 L 36.875 24.09375 C 37.056922 24.27567 37.067433 24.28699 37.03125 24.53125 C 36.99507 24.77551 36.789601 25.21283 36.4375 25.71875 C 35.733297 26.7306 34.451503 28.01869 33.09375 29.34375 C 31.735997 30.66881 30.304829 32.03608 29.3125 33.4375 C 28.816336 34.13821 28.418124 34.85735 28.21875 35.625 C 28.019376 36.39265 28.067581 37.2473 28.46875 38 C 31.291577 43.29776 37.132374 50.3779 43.28125 56.6875 A 1.0001 1.0001 0 0 0 43.3125 56.6875 C 49.622105 62.8365 56.670975 68.70855 61.96875 71.53125 C 62.721453 71.93245 63.5761 71.98065 64.34375 71.78125 C 65.1114 71.58195 65.830536 71.1837 66.53125 70.6875 C 67.932677 69.6952 69.29994 68.26405 70.625 66.90625 C 71.95006 65.54855 73.238153 64.23555 74.25 63.53125 C 74.755924 63.17915 75.193234 63.00485 75.4375 62.96875 C 75.681766 62.93275 75.724329 62.9428 75.90625 63.125 L 88.65625 75.875 C 90.110184 77.329 90.817228 78.32105 90.96875 79.21875 C 91.116177 80.09215 90.792134 81.18145 89.6875 82.96875 C 81.261218 91.34985 71.239174 92.53675 60.8125 89.40625 C 50.359141 86.26785 39.622854 78.68525 30.46875 69.53125 C 21.314677 60.37725 13.700953 49.6409 10.5625 39.1875 C 7.4441644 28.80114 8.6128883 18.78109 16.90625 10.375 C 16.92145 10.365 16.9224 10.35315 16.9375 10.34375 C 18.325416 9.4750775 19.289957 9.1077959 20.0625 9.03125 z " transform="translate(0,952.36218)"/>
  </g>
</svg>